<?xml version="1.0" encoding="UTF-8"?>
<svg xmlns="http://www.w3.org/2000/svg" version="1.1" viewBox="0 0 1114.02 1544.88">
  <!-- Generator: Adobe Illustrator 29.5.1, SVG Export Plug-In . SVG Version: 2.1.0 Build 141)  -->
  <defs>
    <style>
      .st0 {
        fill: #fff;
      }

      .st1, .st2, .st3, .st4, .st5 {
        fill: none;
      }

      .st6, .st7 {
        stroke: #e6e7e8;
      }

      .st6, .st7, .st8, .st9 {
        fill: #bc3634;
      }

      .st6, .st2, .st3, .st4, .st9 {
        stroke-width: 2px;
      }

      .st6, .st2, .st5 {
        stroke-linecap: round;
        stroke-linejoin: round;
      }

      .st7, .st3, .st4, .st9 {
        stroke-miterlimit: 10;
      }

      .st2, .st3, .st4, .st5, .st9 {
        stroke: #fff;
      }

      .st10 {
        fill: #e6e7e8;
      }

      .st4 {
        stroke-dasharray: 5 10;
      }
    </style>
  </defs>
  <g id="_레이어_2" data-name="레이어_2">
    <rect class="st8" width="1114.02" height="1544.88"/>
  </g>
  <g id="_레이어_1" data-name="레이어_1">
    <g>
      <path class="st0" d="M67.44,793.6h4.32v132.64h80.16v4h-84.48v-136.64ZM204.24,856.64h-27.52v76.48h-4.32v-141.6h4.32v61.12h27.52v4Z"/>
      <path class="st0" d="M345.36,886.88v46.24h-115.52v-46.24h55.68v-20.96h-66.08v-4h136.32v4h-65.92v20.96h55.52ZM235.12,793.6v44.32h111.84v4h-116.32v-48.32h4.48ZM234.16,929.12h106.88v-38.24h-106.88v38.24Z"/>
    </g>
    <g>
      <path class="st0" d="M145.33,724.14c-3.84-2.24-7.76-5.04-11.76-8.4-4-3.36-7.79-7.15-11.36-11.36-3.57-4.21-6.8-8.88-9.68-14-2.88-5.12-5.07-10.56-6.56-16.32-1.5,5.98-3.76,11.58-6.8,16.8-3.04,5.23-6.48,10.03-10.32,14.4-3.84,4.37-7.87,8.29-12.08,11.76-4.21,3.47-8.24,6.37-12.08,8.72l-2.72-3.2c6.19-3.84,11.81-8.19,16.88-13.04,5.06-4.85,9.44-10.08,13.12-15.68,3.68-5.6,6.53-11.49,8.56-17.68,2.02-6.19,3.04-12.48,3.04-18.88v-71.2h4.64v71.2c0,13.44,3.6,25.47,10.8,36.08,7.2,10.61,16.93,19.76,29.2,27.44l-2.88,3.36ZM206.29,649.9h-27.52v76.48h-4.32v-141.6h4.32v61.12h27.52v4Z"/>
      <path class="st0" d="M310.61,657.1h-84.32v-37.12h66.88v-29.12h-67.2v-4h71.52v37.12h-66.88v29.12h80v4ZM259.73,726.38c-10.77,0-18.51-2.13-23.2-6.4-4.69-4.27-7.04-10.51-7.04-18.72s2.34-14.37,7.04-18.48c4.69-4.1,12.43-6.16,23.2-6.16h50.4c10.77,0,18.5,2.06,23.2,6.16,4.69,4.11,7.04,10.27,7.04,18.48s-2.35,14.45-7.04,18.72c-4.7,4.27-12.43,6.4-23.2,6.4h-50.4ZM233.81,701.26c0,7.36,2.05,12.72,6.16,16.08,4.1,3.36,10.69,5.04,19.76,5.04h50.4c9.06,0,15.65-1.68,19.76-5.04,4.1-3.36,6.16-8.72,6.16-16.08s-2.05-12.64-6.16-15.84c-4.11-3.2-10.7-4.8-19.76-4.8h-50.4c-9.07,0-15.65,1.6-19.76,4.8-4.11,3.2-6.16,8.48-6.16,15.84ZM363.09,622.86h-27.52v42.24h-4.32v-80.32h4.32v34.08h27.52v4Z"/>
    </g>
    <g>
      <g>
        <path class="st3" d="M341.92,190.81c-49.15,49.15-49.15,128.84,0,177.99l43.1,43.1,177.99,177.99c12.29,12.29,32.21,12.29,44.5,0s12.29-32.21,0-44.5c12.29,12.29,32.21,12.29,44.5,0,12.29-12.29,12.29-32.21,0-44.5,12.29,12.29,32.21,12.29,44.5,0,12.29-12.29,12.29-32.21,0-44.5,12.29,12.29,32.21,12.29,44.5,0,12.29-12.29,12.29-32.21,0-44.5l-177.99-177.99-43.1-43.1c-49.15-49.15-128.84-49.15-177.99,0Z"/>
        <line class="st2" x1="474.01" y1="411.9" x2="607.51" y2="545.4"/>
        <line class="st2" x1="518.51" y1="367.4" x2="652" y2="500.9"/>
        <line class="st2" x1="563.01" y1="322.91" x2="696.5" y2="456.4"/>
      </g>
      <g>
        <g>
          <circle class="st9" cx="407.26" cy="434.15" r="31.46"/>
          <circle class="st9" cx="451.76" cy="478.65" r="31.46"/>
          <circle class="st9" cx="496.26" cy="523.15" r="31.46"/>
          <circle class="st9" cx="540.76" cy="567.65" r="31.46"/>
        </g>
        <path class="st9" d="M606.1,190.81l-43.1,43.1-44.5,44.5c-12.29,12.29-12.29,32.21,0,44.5,12.29,12.29,32.21,12.29,44.5,0l44.5-44.5,133.49,133.49,43.1-43.1c49.15-49.15,49.15-128.84,0-177.99-49.15-49.15-128.84-49.15-177.99,0Z"/>
      </g>
    </g>
    <line class="st5" x1="85.16" y1="769.19" x2="1028.86" y2="769.19"/>
    <g>
      <path class="st10" d="M967.11,577.75v-1.27h25.14v1.27h-25.14ZM969.2,589.74c0-1.43.3-2.61.89-3.54.59-.93,1.38-1.68,2.35-2.24.97-.56,2.07-.96,3.31-1.2,1.24-.24,2.51-.36,3.8-.36s2.57.11,3.83.33c1.26.22,2.37.61,3.34,1.17.97.56,1.75,1.32,2.35,2.27.59.95.89,2.14.89,3.57s-.3,2.62-.89,3.57c-.6.95-1.38,1.71-2.35,2.27-.97.56-2.08.95-3.34,1.17-1.26.22-2.53.33-3.83.33s-2.56-.11-3.8-.33c-1.24-.22-2.35-.61-3.31-1.17-.97-.56-1.75-1.32-2.35-2.27-.59-.95-.89-2.14-.89-3.57ZM1003.06,601.16v13.82h-32.79v-13.82h32.79ZM988.58,589.74c0-1.12-.21-2.07-.64-2.83-.43-.76-1.04-1.38-1.84-1.86-.8-.48-1.75-.82-2.86-1.02-1.11-.2-2.34-.31-3.7-.31s-2.48.1-3.57.31c-1.09.2-2.03.54-2.83,1.02-.8.48-1.43,1.1-1.89,1.86-.46.77-.69,1.69-.69,2.78s.23,2.07.69,2.86c.46.78,1.09,1.41,1.89,1.89.8.48,1.74.82,2.83,1.02,1.09.2,2.28.31,3.57.31,1.36,0,2.59-.1,3.7-.31,1.1-.2,2.06-.54,2.86-1.02.8-.48,1.41-1.1,1.84-1.86.42-.77.64-1.71.64-2.83ZM971.7,613.71h29.99v-11.27h-29.99v11.27ZM972.72,571.28v-1.27h13.67v1.27h-13.67ZM1011.84,584.03h-8.77v13.77h-1.38v-27.95h1.38v12.9h8.77v1.27Z"/>
      <path class="st10" d="M1026.47,581.58c0,6.15-.82,11.58-2.47,16.27-1.65,4.69-4.02,8.84-7.11,12.44l-.97-.66c1.56-1.9,2.92-3.94,4.08-6.12,1.16-2.18,2.11-4.4,2.86-6.68.75-2.28,1.31-4.58,1.68-6.91.37-2.33.56-4.6.56-6.81v-11.27h-7.45v-1.33h8.82v11.07ZM1028.46,613.71c2.75-4.01,4.84-8.38,6.25-13.11,1.41-4.73,2.12-10.05,2.12-15.96v-12.8h-8.31v-1.33h9.69v12.6c0,3.47-.19,6.66-.56,9.59-.37,2.92-.93,5.65-1.66,8.19-.73,2.53-1.64,4.91-2.73,7.14-1.09,2.23-2.35,4.36-3.77,6.4l-1.02-.71ZM1046.82,570.26h1.38v44.06h-1.38v-23.71h-6.07v-1.27h6.07v-19.07ZM1057.68,569.85v45.14h-1.38v-45.14h1.38Z"/>
      <path class="st10" d="M917.69,642.98c0-1.97.34-3.69,1.02-5.15.68-1.46,1.58-2.69,2.7-3.67,1.12-.99,2.39-1.73,3.8-2.22,1.41-.49,2.86-.74,4.36-.74s2.96.25,4.39.74c1.43.49,2.7,1.22,3.83,2.19,1.12.97,2.02,2.19,2.7,3.67.68,1.48,1.02,3.21,1.02,5.18s-.34,3.69-1.02,5.15c-.68,1.46-1.58,2.67-2.7,3.62-1.12.95-2.4,1.67-3.83,2.14-1.43.48-2.89.71-4.39.71s-2.95-.24-4.36-.71c-1.41-.48-2.68-1.2-3.8-2.17-1.12-.97-2.02-2.18-2.7-3.62-.68-1.44-1.02-3.15-1.02-5.13ZM940.13,642.98c0-1.73-.28-3.25-.84-4.56-.56-1.31-1.33-2.4-2.29-3.26-.97-.87-2.09-1.52-3.37-1.96-1.28-.44-2.63-.66-4.05-.66-1.33,0-2.63.22-3.9.66-1.28.44-2.4,1.1-3.37,1.96-.97.87-1.75,1.95-2.35,3.24-.6,1.29-.89,2.81-.89,4.54s.3,3.3.89,4.59c.59,1.29,1.38,2.36,2.35,3.21.97.85,2.09,1.49,3.37,1.91,1.27.43,2.58.64,3.9.64,1.43,0,2.78-.21,4.05-.64,1.27-.42,2.4-1.06,3.37-1.91.97-.85,1.73-1.92,2.29-3.21.56-1.29.84-2.8.84-4.54ZM960.53,676.23c-1.02-.31-2.07-.72-3.14-1.25-1.07-.53-2.07-1.17-3.01-1.91-.94-.75-1.78-1.58-2.52-2.5-.75-.92-1.33-1.92-1.73-3.01-.31,1.05-.77,2.07-1.4,3.03-.63.97-1.37,1.87-2.22,2.7-.85.83-1.78,1.58-2.78,2.24-1,.66-2.03,1.22-3.09,1.66-1.05-.44-2.08-1-3.08-1.68-1-.68-1.93-1.44-2.78-2.27-.85-.83-1.59-1.73-2.22-2.7-.63-.97-1.1-1.96-1.4-2.98-.38,1.09-.94,2.09-1.68,3.01s-1.6,1.75-2.55,2.5c-.95.75-1.96,1.38-3.01,1.91-1.05.53-2.09.94-3.11,1.25l-.66-1.07c6.94-2.48,10.4-6.36,10.4-11.63v-3.42h1.38v3.47c0,2.45.73,4.74,2.19,6.89,1.46,2.14,3.64,3.93,6.53,5.35,2.89-1.43,5.08-3.21,6.55-5.35,1.48-2.14,2.22-4.44,2.22-6.89v-3.47h1.38v3.42c0,5.27,3.47,9.15,10.4,11.63l-.66,1.07ZM955.28,631.05h1.38v26.42h-1.38v-26.42Z"/>
      <path class="st10" d="M1010.15,651.75v1.28h-43.45v-1.28h43.45ZM979.25,645.58c-3.43,0-5.87-.57-7.32-1.71-1.45-1.14-2.17-2.88-2.17-5.23s.72-4.09,2.17-5.23c1.45-1.14,3.88-1.71,7.32-1.71h18.36c3.43,0,5.87.57,7.32,1.71,1.45,1.14,2.17,2.88,2.17,5.23s-.72,4.09-2.17,5.23c-1.45,1.14-3.88,1.71-7.32,1.71h-18.36ZM1005.46,667v-6.43h-35.45v-1.27h36.82v8.98h-35.45v6.63h36.46v1.27h-37.84v-9.18h35.45ZM971.14,638.65c0,2.04.64,3.49,1.91,4.36,1.28.87,3.34,1.3,6.2,1.3h18.36c2.86,0,4.92-.43,6.2-1.3,1.28-.87,1.91-2.32,1.91-4.36s-.64-3.49-1.91-4.36c-1.27-.87-3.34-1.3-6.2-1.3h-18.36c-2.86,0-4.92.43-6.2,1.3-1.27.87-1.91,2.32-1.91,4.36Z"/>
      <path class="st10" d="M1017.19,631.71h10.76v1.27h-9.38v41h9.38v1.27h-10.76v-43.55ZM1030.76,631.71h10.46v1.27h-9.08v41h10.1v1.27h-11.48v-43.55ZM1056.31,631.05h1.38v45.14h-1.38v-24.38h-8.62v23.71h-1.38v-44.06h1.38v19.07h8.62v-19.48Z"/>
      <path class="st10" d="M822.53,716.68v-7.9h1.38v7.9h21.01v1.27h-43.45v-1.27h21.06ZM841.09,694.19h-17.24v2.5c0,1.87.52,3.52,1.56,4.95,1.04,1.43,2.42,2.67,4.16,3.72,1.73,1.05,3.72,1.93,5.97,2.63,2.24.7,4.59,1.25,7.04,1.66l-.56,1.22c-1.87-.31-3.78-.73-5.74-1.27-1.96-.54-3.8-1.23-5.53-2.07-1.73-.83-3.27-1.84-4.62-3.01-1.34-1.17-2.34-2.54-2.98-4.11-.65,1.56-1.64,2.93-2.98,4.11s-2.87,2.18-4.59,3.01c-1.72.83-3.55,1.52-5.51,2.07-1.96.54-3.87.97-5.74,1.27l-.51-1.22c2.45-.37,4.79-.91,7.04-1.61,2.24-.7,4.22-1.58,5.94-2.65,1.72-1.07,3.09-2.33,4.13-3.77,1.04-1.44,1.56-3.09,1.56-4.92v-2.5h-17.19v-1.27h35.8v1.27ZM806.21,724.68v11.42h35.9v1.27h-37.33v-12.7h1.43Z"/>
      <path class="st10" d="M863.33,694.19v22.54c0,1.63.16,3.31.48,5.02.32,1.72.87,3.39,1.63,5.02.76,1.63,1.8,3.18,3.11,4.64,1.31,1.46,2.93,2.77,4.87,3.93l-.71,1.02c-.95-.54-1.94-1.22-2.96-2.04-1.02-.82-2-1.8-2.93-2.96-.94-1.16-1.77-2.5-2.5-4.03-.73-1.53-1.28-3.26-1.66-5.2-.38,1.97-.95,3.76-1.73,5.35-.78,1.6-1.66,3.02-2.63,4.26-.97,1.24-1.98,2.3-3.03,3.19-1.05.88-2.06,1.6-3.01,2.14l-.76-.92c1.94-1.16,3.58-2.51,4.92-4.05,1.34-1.55,2.42-3.17,3.24-4.87.82-1.7,1.4-3.44,1.76-5.23.36-1.79.54-3.51.54-5.18v-22.64h-9.38v-1.27h20.15v1.27h-9.38ZM891.07,692.25h1.38v45.14h-1.38v-24.38h-9.64v23.71h-1.38v-44.06h1.38v19.07h9.64v-19.48Z"/>
      <path class="st10" d="M902.08,701.73v-1.27h24.94v1.27h-24.94ZM925.65,725.09c0,4.28-.98,7.34-2.93,9.15-1.96,1.82-4.75,2.73-8.39,2.73s-6.44-.91-8.42-2.73c-1.97-1.82-2.96-4.87-2.96-9.15v-4.44c0-4.28.99-7.34,2.96-9.15,1.97-1.82,4.78-2.73,8.42-2.73s6.43.91,8.39,2.73c1.96,1.82,2.93,4.87,2.93,9.15v4.44ZM924.27,720.65c0-2.04-.23-3.74-.69-5.1-.46-1.36-1.12-2.45-1.99-3.26-.87-.82-1.91-1.39-3.14-1.71-1.22-.32-2.6-.48-4.13-.48s-2.91.16-4.13.48c-1.22.32-2.27.89-3.14,1.71-.87.82-1.54,1.9-2.01,3.26-.48,1.36-.71,3.06-.71,5.1v4.44c0,2.04.24,3.74.71,5.1.48,1.36,1.15,2.45,2.01,3.26.87.82,1.91,1.39,3.14,1.71,1.22.32,2.6.48,4.13.48s2.91-.16,4.13-.48c1.22-.32,2.27-.89,3.14-1.71.87-.82,1.53-1.9,1.99-3.26s.69-3.06.69-5.1v-4.44ZM907.19,693.68v-1.27h14.69v1.27h-14.69ZM946.56,713h-8.77v24.38h-1.38v-45.14h1.38v19.48h8.77v1.27Z"/>
      <path class="st10" d="M994.85,716.68v1.27h-43.45v-1.27h43.45ZM956.14,724.68v11.42h35.9v1.27h-37.33v-12.7h1.43ZM956.4,692.91v15.66h35.65v1.27h-37.08v-16.93h1.43Z"/>
      <path class="st10" d="M1039.38,694.59c0,2.86-.54,5.46-1.63,7.8-1.09,2.35-2.57,4.46-4.44,6.35-1.87,1.89-4.07,3.54-6.6,4.95-2.53,1.41-5.23,2.59-8.08,3.54l-.61-1.17c2.62-.88,5.13-1.99,7.52-3.31,2.4-1.33,4.51-2.88,6.35-4.67,1.84-1.79,3.3-3.78,4.39-5.99,1.09-2.21,1.63-4.62,1.63-7.24v-.66h-18.72v-1.27h20.2v1.68ZM1058.91,737.64c-2.01-.31-4.02-.73-6.04-1.27-2.02-.54-3.92-1.23-5.69-2.07-1.77-.83-3.32-1.84-4.67-3.01-1.34-1.17-2.34-2.54-2.98-4.11-.65,1.56-1.64,2.93-2.98,4.11-1.34,1.17-2.89,2.18-4.64,3.01-1.75.83-3.64,1.52-5.66,2.07-2.02.54-4.04.97-6.04,1.27l-.51-1.22c2.55-.34,4.99-.87,7.32-1.58,2.33-.71,4.37-1.61,6.12-2.68,1.75-1.07,3.14-2.33,4.18-3.77,1.04-1.44,1.56-3.09,1.56-4.92v-2.19h1.38v2.19c0,1.84.52,3.48,1.56,4.92,1.04,1.45,2.44,2.7,4.21,3.77,1.77,1.07,3.82,1.95,6.15,2.65,2.33.7,4.77,1.23,7.32,1.61l-.56,1.22ZM1056.61,692.25v28.46h-1.38v-16.17h-13.72v-1.33h13.72v-10.97h1.38Z"/>
    </g>
    <g>
      <path class="st10" d="M868.27,795.13h1.38v42.28h25.55v1.27h-26.93v-43.55ZM911.87,815.22h-8.77v24.38h-1.38v-45.13h1.38v19.48h8.77v1.27Z"/>
      <path class="st10" d="M956.86,822.72v8.98h-35.45v6.63h36.47v1.27h-37.84v-9.18h35.45v-6.43h-35.45v-1.28h17.75v-6.27h-21.06v-1.28h43.45v1.28h-21.01v6.27h17.7ZM921.72,795.13v12.6h35.65v1.28h-37.08v-13.87h1.43Z"/>
      <path class="st10" d="M966.7,826.54v-1.27h43.45v1.27h-21.22v13.82h-1.38v-13.82h-20.86ZM1008.47,819.1c-2.62-.54-5.04-1.26-7.27-2.14-2.23-.88-4.2-1.96-5.92-3.24-1.72-1.28-3.16-2.77-4.33-4.49-1.17-1.72-2.01-3.68-2.52-5.89-.51,2.21-1.35,4.17-2.52,5.89-1.17,1.72-2.62,3.21-4.33,4.49-1.72,1.27-3.69,2.35-5.92,3.24-2.23.88-4.65,1.6-7.27,2.14l-.46-1.17c3.16-.68,5.97-1.58,8.42-2.7,2.45-1.12,4.51-2.52,6.2-4.18,1.68-1.67,2.97-3.6,3.85-5.79.88-2.19,1.33-4.7,1.33-7.52v-2.91h1.43v2.91c0,2.82.44,5.34,1.33,7.55.88,2.21,2.17,4.14,3.85,5.79,1.68,1.65,3.76,3.03,6.22,4.16,2.46,1.12,5.28,2.02,8.44,2.7l-.51,1.17Z"/>
      <path class="st10" d="M1060.13,818.38v1.28h-43.45v-1.28h21.06v-6.38h-17.49v-9.33h34.93v-6.27h-34.93v-1.28h36.31v8.82h-34.94v6.78h35.96v1.27h-18.46v6.38h21.01ZM1019.48,827.16v-1.28h37.33v13.92h-1.38v-12.65h-35.96Z"/>
      <path class="st10" d="M885.3,876.63v-10.2h1.38v10.2h23.51v1.28h-43.45v-1.28h18.56ZM871.43,884.43v6.63h34.07v-6.63h1.38v16.37h-36.82v-16.37h1.38ZM870.31,857.55v-1.22h36.31v16.73h-1.38v-15.5h-34.93ZM871.43,899.53h34.07v-7.19h-34.07v7.19Z"/>
      <path class="st10" d="M917.28,865.15v-1.28h21.93v1.28h-21.93ZM937.58,888.61c0,1.9-.14,3.59-.43,5.05-.29,1.46-.79,2.69-1.5,3.67s-1.67,1.74-2.86,2.27c-1.19.53-2.7.79-4.54.79s-3.35-.26-4.54-.79-2.14-1.28-2.86-2.27-1.22-2.21-1.5-3.67c-.29-1.46-.43-3.14-.43-5.05v-4.64c0-1.87.14-3.54.43-5.02.29-1.48.79-2.71,1.5-3.7.71-.99,1.67-1.74,2.86-2.27,1.19-.53,2.7-.79,4.54-.79s3.35.26,4.54.79c1.19.53,2.14,1.28,2.86,2.27.71.99,1.21,2.22,1.5,3.7.29,1.48.43,3.15.43,5.02v4.64ZM920.29,888.61c0,1.8.13,3.36.38,4.67.25,1.31.69,2.4,1.3,3.26.61.87,1.43,1.5,2.45,1.91,1.02.41,2.29.61,3.83.61s2.81-.2,3.83-.61,1.84-1.04,2.45-1.91c.61-.87,1.04-1.96,1.3-3.26.26-1.31.38-2.86.38-4.67v-4.64c0-1.8-.13-3.36-.38-4.67-.25-1.31-.69-2.4-1.3-3.26-.61-.87-1.43-1.5-2.45-1.91-1.02-.41-2.29-.61-3.83-.61s-2.8.2-3.83.61c-1.02.41-1.84,1.05-2.45,1.91-.61.87-1.05,1.96-1.3,3.26-.25,1.31-.38,2.87-.38,4.67v4.64ZM922.38,857.09v-1.27h11.68v1.27h-11.68ZM956.35,855.67h1.38v45.13h-1.38v-24.38h-9.64v23.72h-1.38v-44.06h1.38v19.07h9.64v-19.48Z"/>
      <path class="st10" d="M981.08,857.6v21.17c0,4.28,1.15,8.12,3.44,11.5,2.29,3.38,5.4,6.3,9.31,8.75l-.92,1.07c-1.22-.71-2.47-1.61-3.75-2.68-1.28-1.07-2.48-2.28-3.62-3.62-1.14-1.34-2.17-2.83-3.08-4.46s-1.62-3.37-2.09-5.2c-.48,1.9-1.2,3.69-2.17,5.36s-2.07,3.2-3.29,4.59c-1.22,1.39-2.51,2.64-3.85,3.75s-2.63,2.03-3.85,2.78l-.87-1.02c1.97-1.22,3.76-2.61,5.38-4.16,1.62-1.55,3.01-3.21,4.18-5s2.08-3.66,2.73-5.64c.65-1.97.97-3.98.97-6.02v-21.17h-11.22v-1.28h23.92v1.28h-11.22ZM1005.26,855.67h1.38v45.13h-1.38v-45.13Z"/>
      <path class="st10" d="M1060.13,880.1v1.27h-43.45v-1.27h43.45ZM1021.42,888.1v11.42h35.9v1.27h-37.33v-12.7h1.43ZM1021.68,856.33v15.66h35.65v1.28h-37.08v-16.93h1.43Z"/>
      <path class="st10" d="M992.4,961.29c-1.22-.71-2.47-1.61-3.75-2.68-1.28-1.07-2.48-2.28-3.62-3.62-1.14-1.34-2.17-2.83-3.09-4.46s-1.62-3.37-2.09-5.2c-.48,1.9-1.2,3.69-2.17,5.36-.97,1.67-2.07,3.2-3.29,4.59-1.22,1.39-2.51,2.64-3.85,3.75-1.34,1.1-2.63,2.03-3.85,2.78l-.87-1.02c1.97-1.22,3.76-2.61,5.38-4.16,1.61-1.55,3.01-3.21,4.18-5,1.17-1.79,2.08-3.66,2.73-5.64.64-1.97.97-3.98.97-6.02v-22.7h1.48v22.7c0,4.28,1.15,8.12,3.44,11.5,2.29,3.38,5.4,6.3,9.31,8.75l-.92,1.07ZM1011.83,937.62h-8.77v24.38h-1.38v-45.13h1.38v19.48h8.77v1.27Z"/>
      <path class="st10" d="M1045.08,939.92h-26.88v-11.83h21.32v-9.28h-21.42v-1.28h22.8v11.83h-21.32v9.28h25.5v1.27ZM1028.87,962c-3.43,0-5.9-.68-7.4-2.04-1.5-1.36-2.24-3.35-2.24-5.97s.75-4.58,2.24-5.89c1.5-1.31,3.96-1.96,7.4-1.96h16.06c3.43,0,5.9.66,7.4,1.96,1.5,1.31,2.24,3.27,2.24,5.89s-.75,4.61-2.24,5.97c-1.5,1.36-3.96,2.04-7.4,2.04h-16.06ZM1020.61,953.99c0,2.35.65,4.05,1.96,5.13s3.41,1.61,6.3,1.61h16.06c2.89,0,4.99-.54,6.3-1.61,1.31-1.07,1.96-2.78,1.96-5.13s-.66-4.03-1.96-5.05c-1.31-1.02-3.41-1.53-6.3-1.53h-16.06c-2.89,0-4.99.51-6.3,1.53-1.31,1.02-1.96,2.7-1.96,5.05ZM1061.81,929h-8.77v13.46h-1.38v-25.6h1.38v10.86h8.77v1.28Z"/>
    </g>
    <g>
      <path class="st1" d="M672.61,957.29l3.89,3.89c-1.24-1.35-2.54-2.65-3.89-3.89Z"/>
      <g>
        <polyline class="st1" points="560.45 977.29 478.31 1059.42 520.66 1101.77 563.01 1144.12 605.35 1101.77 626.53 1080.6 647.7 1059.42 565.5 977.22 563.01 974.73 560.45 977.29"/>
        <polygon class="st1" points="478.31 1059.42 478.31 1059.42 435.97 1101.77 435.97 1101.77 478.31 1059.42"/>
        <path class="st6" d="M547.96,959.68l15.04,15.04h0s-2.56,2.56-2.56,2.56l-82.13,82.13h0s-42.35,42.35-42.35,42.35c-17.54,17.54-45.98,17.54-63.52,0-17.54-17.54-17.54-45.98,0-63.52l76.08-76.08,5.78-5.78c12-10.65,27.79-17.13,45.1-17.13,18.53,0,35.32,7.42,47.59,19.44l.97.97Z"/>
        <path class="st6" d="M774.74,1186.46l-84.69-84.69c23.39,23.39,23.39,61.31,0,84.69l-42.35,42.35-84.69,84.69,42.35,42.35c46.78,46.78,122.61,46.78,169.39,0s46.78-122.61,0-169.39Z"/>
        <path class="st7" d="M626.53,1080.6l-21.17,21.17c23.39-23.39,61.31-23.39,84.69,0l-42.35-42.35-21.17,21.17Z"/>
        <polygon class="st6" points="478.31 1059.42 520.66 1101.77 520.66 1101.77 478.31 1059.42"/>
        <path class="st6" d="M690.05,1101.77c-23.39-23.39-61.31-23.39-84.69,0l-42.35,42.35-84.69,84.69-42.35-42.35c-23.39-23.39-23.39-61.3,0-84.69l-42.34,42.34-42.35,42.35c-46.78,46.78-46.78,122.61,0,169.39,46.78,46.78,122.61,46.78,169.39,0l42.35-42.35,84.69-84.69,42.35-42.35c23.39-23.39,23.39-61.31,0-84.69Z"/>
        <polygon class="st6" points="435.97 1101.77 435.96 1101.77 435.97 1101.77 435.97 1101.77"/>
        <path class="st6" d="M435.97,1186.46l42.35,42.35,84.69-84.69-42.35-42.35c-23.39-23.39-61.3-23.39-84.69,0h0c-23.39,23.39-23.38,61.31,0,84.7Z"/>
        <polygon class="st6" points="520.66 1101.77 563.01 1144.12 520.66 1101.77 520.66 1101.77"/>
        <path class="st6" d="M753.57,1038.25l-77.07-77.07-3.89-3.89c-12.12-11.18-28.31-18.02-46.1-18.02s-33.55,6.65-45.62,17.57l-4.82,4.82-13.07,13.07h0s-84.69,84.69-84.69,84.69l-42.34,42.34c23.39-23.39,61.3-23.38,84.69,0l42.35,42.35,84.69-84.69,42.35,42.35c17.54,17.54,45.98,17.54,63.52,0,17.54-17.54,17.54-45.98,0-63.52Z"/>
      </g>
    </g>
    <line class="st4" x1="478.31" y1="1228.81" x2="563.01" y2="1313.5"/>
  </g>
</svg>