<?xml version="1.0" encoding="UTF-8"?>
<svg id="_레이어_1" data-name="레이어_1" xmlns="http://www.w3.org/2000/svg" version="1.1" viewBox="0 0 1000.6 512">
  <!-- Generator: Adobe Illustrator 29.5.1, SVG Export Plug-In . SVG Version: 2.1.0 Build 141)  -->
  <defs>
    <style>
      .st0 {
        fill: #f8df8d;
      }

      .st1 {
        fill: #415364;
      }

      .st2 {
        fill: #fff;
      }

      .st3 {
        fill: #92c0e9;
      }

      .st4 {
        fill: #ea6852;
      }

      .st5 {
        fill: #f8dbc7;
      }

      .st6 {
        fill: #cdd8e6;
      }

      .st7 {
        fill: #c39b82;
      }

      .st8 {
        fill: #efc2b3;
      }

      .st9 {
        fill: #a7a9ac;
      }

      .st10 {
        fill: #f6dfa4;
      }

      .st11 {
        fill: #363637;
      }

      .st12 {
        fill: #ff8e9f;
      }

      .st13 {
        fill: #c0df88;
      }

      .st14 {
        fill: #f4f2f0;
      }

      .st15 {
        fill: #5b89b4;
      }

      .st16 {
        fill: #e6e7e8;
      }

      .st17 {
        fill: #ffb1b9;
      }
    </style>
  </defs>
  <circle class="st14" cx="263.27" cy="255.61" r="221.64"/>
  <path class="st11" d="M460.45,217.19c1.37,9.82-2.86,19.37-9.05,27.88.24,3.78.38,7.55.38,11.38,0,18.21-2.65,36.28-7.87,53.7-6.11,20.28-15.57,39.26-28.1,56.39-17.73,24.18-41.24,43.95-68.04,57.16-10.63,5.27-21.7,9.46-33.06,12.56-11.36,3.1-23.05,5.12-34.96,6.01-5.27.41-9.91.6-14.24.6-18.28,0-36.38-2.67-53.79-7.92-11.21-3.39-21.99-7.77-32.26-13.14-10.27-5.37-20.06-11.69-29.26-18.96-2.21-1.76-4.38-3.58-6.52-5.41-23.36-20.26-41.45-46.14-52.35-74.87-.77-2-1.49-3.99-2.19-6.01-.6-1.78-1.15-3.58-1.68-5.37-.63-.46-1.25-.91-1.8-1.47-6.16-6.09-6.76-13.62-4.04-19.99l6.86,2.04c-2.04,4.98-.99,10.95,4.91,14.6,2.65,1.64,5.68,2.38,8.81,2.74l9.02-9.02c1.54-1.54,4.02-1.54,5.56,0l9.5,9.5h.31c2.17-4.5,5.22-8.59,9.02-11.96,2.09-1.83,4.26-3.44,6.52-4.81,2.12-1.3,4.31-2.41,6.54-3.3-1.23-6.64-1.54-13.5-.94-20.35-10.47,1.11-20.47-3.42-27.5-11.36-.38-.43-.79-.84-1.15-1.3-.26-.31-.48-.65-.75-.99-.38.24-.84.38-1.37.46-11.48,1.3-15.73,12.68-13.33,22.71.55,2.31-1.06,4.16-3.3,4.35-2.33.19-4.47.94-6.28,2.07l-3.03-5.92c1.66-.96,3.46-1.73,5.34-2.26-1.78-13.4,4.74-24.8,18.31-27.43-2.31-4.88-3.39-10.03-3.56-15.33-.22-6.9,1.08-14.03,3.01-21.03.43-1.52.94-3.03,1.44-4.52-1.83-1.44-3.71-2.98-5.61-4.62l5.37-4.38c.89.77,1.8,1.52,2.72,2.26,6.09-14.68,15.69-27.76,27.98-36.98.1-1.52.05-3.01-.24-4.4l6.11-1.4c.14.53.29,1.08.38,1.64,10.39-6.23,22.4-9.79,35.53-9.62.17-.26.34-.53.55-.77,17.42-19.54,47.47-29.3,77.71-29.52-2.21-5.17-3.18-10.63-2.02-16.26.53-2.53,1.37-4.72,2.48-6.59,6.06-10.15,19.82-10.75,29.35-3.1,5.65-6.11,13.98-8.04,20.76-5.7,5.61,1.95,10.15,6.83,11.28,14.75,1.35,9.65-2.69,19.03-8.71,27.43,6.13,2.77,11.86,6.04,16.99,9.89,2.12-2.81,4.35-5.53,6.66-8.16l5.24,4.21c-2.33,2.65-4.57,5.41-6.71,8.28,1.61,1.47,3.15,2.98,4.6,4.55h.02c3.63-.12,7.15.12,10.59.55,1.03-1.15,2.07-2.29,3.13-3.39l4.84,4.88c4.64,1.18,9.07,2.84,13.28,4.96,5.65-4.14,11.45-8.13,17.3-11.96l3.73,5.75c-4.91,3.22-9.74,6.54-14.53,9.98,3.95,2.55,7.65,5.51,11.09,8.81.26-.26.51-.51.87-.7.26-.14.51-.26.77-.41l3.18,6.06c7.36,8.28,13.21,18.04,17.3,28.56,3.8.6,7.58,2.26,10.85,4.88l4.98,4.62c-.58.65-1.13,1.35-1.61,2.12-1.13,1.8-3.85,2.38-5.39.7-6.52-7.12-19.27-9.65-22.9,2.5-1.9,6.3,1.32,12.85,4.4,18.02,3.32,5.61,7.65,10.47,12.41,14.89l-3.9,5.73c-.14.19-.26.38-.41.58-.99,1.25-2.07,2.43-3.18,3.54,9.19,3.58,15.71,11.88,17.25,21.72,3.15.29,6.16.94,9.17,2.02,1.49-9.26,2.26-18.65,2.26-28.05-2.45,2.48-4.93,4.79-7.29,6.88l-4.98-4.86c4.23-3.83,8.28-7.87,11.96-12.17,4.31-5.03,8.25-10.49,10.56-16.72,2.02-5.49,5.08-17.27-3.44-20.23-1.25-.43-2.55-.7-3.8-.82l.46-7c7.43.67,14.1,5.8,15.49,15.59ZM434.05,307.2c1.56-5.22,2.86-10.49,3.92-15.81-3.56-1.32-7.05-2.09-10.99-2.17-1.92-.05-3.34-1.54-3.42-3.44-.46-10.1-7.75-17.92-17.54-19.75-5.34,3.13-11.43,4.74-17.71,4.28.31,8.08-.6,16.17-2.65,23.75,1.08.48,2.14,1.01,3.2,1.59.38.12.75.29,1.13.58.41.22.72.48.99.77,9.5,7.27,17.23,18.02,18.91,29.98l2.6,2.6,21.17-21.17c.12-.41.26-.79.38-1.2ZM427.15,326.06l-11.55,11.57v10.78c4.4-7.17,8.25-14.63,11.55-22.35ZM407.71,360.2v-16.12c-3.87,8.23-11.88,12.94-21.39,12.63-6.62,9.33-21.82,9.89-31.95,6.28-1.8-.65-3.37-1.59-4.91-2.57v50.79c22.71-12.39,42.7-29.78,58.05-50.72.07-.1.12-.19.19-.29ZM408.5,203.77c-.87-2-1.76-3.97-2.67-5.85-11.04-22.62-32.53-39.41-58.29-39.17-.51,0-.99-.02-1.52-.02-.34.02-.67,0-.99-.07-1.3.43-2.74.19-3.95-1.18-.91-1.06-1.88-2.09-2.89-3.08-32.65-32.7-107.54-33.51-140.89-.91-1.01.96-1.97,1.95-2.89,2.98-.55.63-1.15.99-1.78,1.18-.63,1.23-1.83,2.12-3.63,2.07-.53-.02-1.03.02-1.54.02-26.61-.12-48.29,17.2-59.35,40.63-5.39,11.38-11.16,27.14-7.99,39.74,3.06,12.22,15.54,23.24,28.61,20.38l.17-.02c2.21-11.14,6.78-21.82,13.47-30.75,3.22-4.28,6.95-8.13,11.14-11.48.02-.19.02-.36.05-.55,2.43-13.02,6.04-26.37,12.22-38.13,2.57-4.88,9.96-.55,7.41,4.33-5.82,11.04-9.07,23.82-11.36,36.04v.29c.02,1.32-.51,2.69-1.85,3.68-19.54,14.19-27.02,40.01-22.69,63.13,11.31-2.14,23.29-.05,33.99,5.65.36.14.75.31,1.13.58.38.24.7.51.99.77,12.01,9.21,21.24,24.01,18.91,39.74-.38,2.5-1.06,4.81-2,6.88,19.2,6.47,40.47,8.73,58.99,9.33,17.73.58,36.76-1.37,54.13-7.27-6.62-14.39-2.02-31.73,9.74-42.1,12.53-11.07,28.73-13.74,43.88-9.67,6.38-23.82,1.49-52.13-19.05-66.21-.41-.29-.72-.6-.99-.94-1.06-.55-1.9-1.49-2.26-2.79-.07-.22-.12-.46-.17-.7-1.64-12.8-3.99-25.02-8.59-37.12-1.95-5.17,6.33-7.39,8.28-2.29,4.55,11.98,6.83,24.2,8.54,36.81,2.89,2.04,5.51,4.38,7.92,6.93,9.21,9.82,14.77,23.07,16.77,36.95,9.58,1.59,17.51-3.63,22.42-11.14-8.88-9.36-15.83-20.67-13.4-32.62,1.59-7.67,6.28-12.29,11.96-14.07ZM385.17,348.14c13.95,2.19,18.21-12.58,15.52-23.22-2.21-8.78-7.79-16.02-14.99-21.29-16.87-9.48-39.62-8.01-51.56,8.76-7.46,10.51-7.75,36.74,11.48,34.24,1.47-.19,2.96.96,3.71,2.12,4.57,7.22,26.25,12.99,30.58,2.38.96-2.36,2.77-3.37,5.27-2.98ZM341.57,415.27v-58.92c-.72-.19-1.64-.43-3.13-.89-4.26-1.35-7.48-2.84-10.18-5.51-14.39,5.12-29.88,7.79-44.97,8.49v73.16c20.35-2.04,39.91-7.51,58.27-16.34ZM319.22,116.44c2.02-5.49,5.08-17.27-3.44-20.23-6.38-2.21-13.04-.14-16.53,5.46-1.13,1.8-3.85,2.38-5.39.7-6.52-7.12-19.27-9.65-22.9,2.5-1.68,5.58.65,11.36,3.34,16.19,13.21.67,26.22,3.18,38.01,7.51,2.81-3.73,5.27-7.72,6.9-12.13ZM275.41,432.28v-73.64c-2.04,0-4.07,0-6.09-.07-16.5-.51-34.79-2.41-52.16-7.03v74.27c15.69,4.5,31.93,6.78,48.36,6.78,3.08,0,6.33-.1,9.89-.31ZM209.28,423.35v-74.15c-1.35-.43-2.69-.87-4.04-1.32-4.23,3.97-10.03,6.09-16.5,5.87-6.62,9.33-21.8,9.91-31.93,6.28-2.17-.77-3.97-1.92-5.8-3.1v33.22c1.83,1.59,3.68,3.15,5.58,4.64,15.88,12.56,33.59,22.11,52.69,28.56ZM187.6,345.19c13.93,2.19,18.19-12.58,15.49-23.22-2.21-8.78-7.77-16.02-14.99-21.29-16.84-9.45-39.62-7.99-51.53,8.76-7.48,10.51-7.77,36.76,11.45,34.24,1.49-.19,2.96.99,3.71,2.14,4.6,7.19,26.25,12.99,30.6,2.38.96-2.36,2.74-3.39,5.27-3.01ZM143.14,382.93v-29.76c-.6-.17-1.3-.36-2.26-.67-6.21-1.92-10.2-4.11-13.57-9.94-2.84-4.91-4.26-10.3-4.43-15.69-.1-2.94.17-5.85.77-8.73l-9.65-9.65-10.95,10.92-1.25,1.28-.12.07c9.17,23.34,23.36,44.63,41.45,62.17Z"/>
  <path class="st17" d="M448.3,209.42c8.52,2.96,5.46,14.75,3.44,20.23-2.31,6.23-6.26,11.69-10.56,16.72-3.68,4.31-7.72,8.35-11.96,12.17-3.06-2.41-6.06-4.88-8.93-7.55-4.76-4.43-9.09-9.29-12.41-14.89-3.08-5.17-6.3-11.72-4.4-18.02,3.63-12.15,16.38-9.62,22.9-2.5,1.54,1.68,4.26,1.11,5.39-.7.48-.77,1.03-1.47,1.61-2.12,2.86-3.06,6.9-4.52,11.12-4.16,1.25.12,2.55.38,3.8.82Z"/>
  <path class="st11" d="M444.95,201.6l-.46,7c-4.21-.36-8.25,1.11-11.12,4.16l-4.98-4.62c1.56-1.66,3.3-3.03,5.15-4.07-4.16-13.4-9.94-26.1-17.01-37.92l-3.68-5.82c-2.81-4.33-5.85-8.54-9.05-12.58-1.66,1.06-3.3,2.12-4.93,3.2l-3.73-5.75c1.42-.94,2.86-1.88,4.31-2.79-3.32-3.92-6.81-7.7-10.47-11.31-8.9,6.18-17.01,13.26-24.42,21.1l-4.84-4.88c7.39-7.79,15.47-14.77,24.23-21-3.83-3.49-7.82-6.78-11.93-9.94-8.85,5.99-16.87,12.99-23.91,20.95l-5.24-4.21c6.93-7.87,14.75-14.84,23.38-20.96-14.89-10.47-31.49-18.67-49.27-24.08-15.45-4.76-31.83-7.43-48.74-7.7l-6.78-.63c.26-3.06-.41-6.04-3.56-7.15-4.19-1.44-8.4-.02-10.66,3.61-1.13,1.8-3.85,2.38-5.39.7-2.43-2.65-6.21-4.45-9.43-3.99l-.77-6.59c4.09-.55,8.52.58,12.25,3.3,6.28-6.06,16.19-5.97,21.22.43.14,0,.26-.02.41-.02,83.6,0,154.5,55.41,177.99,131.46.48,0,.96.02,1.44.1Z"/>
  <path class="st3" d="M441.49,256.53c0,9.41-.77,18.79-2.26,28.05-3.01-1.08-6.01-1.73-9.17-2.02-1.54-9.84-8.06-18.14-17.25-21.72,1.11-1.11,2.19-2.29,3.18-3.54.14-.19.26-.38.41-.58,3.95,3.51,7.89,6.64,11.33,9.26,1.52,1.18,3.03.7,3.97-.43l.17-.1c.75-.65,1.54-1.32,2.33-2.04,2.36-2.09,4.84-4.4,7.29-6.88Z"/>
  <path class="st2" d="M437.98,291.39c-1.06,5.32-2.36,10.59-3.92,15.81-.12.41-.26.79-.38,1.2l-21.17,21.17-2.6-2.6c-1.68-11.96-9.41-22.71-18.91-29.98-.26-.29-.58-.55-.99-.77-.38-.29-.75-.46-1.13-.58-1.06-.58-2.12-1.11-3.2-1.59,2.04-7.58,2.96-15.66,2.65-23.75,6.28.46,12.37-1.15,17.71-4.28,9.79,1.83,17.08,9.65,17.54,19.75.07,1.9,1.49,3.39,3.42,3.44,3.95.07,7.43.84,10.99,2.17ZM419.79,307.34c0-2.94-2.41-5.34-5.37-5.34s-5.34,2.41-5.34,5.34,2.41,5.37,5.34,5.37,5.37-2.41,5.37-5.37Z"/>
  <path class="st11" d="M434.2,263.41c-.79.72-1.59,1.4-2.33,2.04l-.17.1c-.94,1.13-2.45,1.61-3.97.43-3.44-2.62-7.39-5.75-11.33-9.26l3.9-5.73c2.86,2.67,5.87,5.15,8.93,7.55l4.98,4.86Z"/>
  <path class="st3" d="M433.55,204.08c-1.85,1.03-3.58,2.41-5.15,4.07-3.27-2.62-7.05-4.28-10.85-4.88-4.09-10.51-9.94-20.28-17.3-28.56,5.44-2.84,10.85-5.7,16.29-8.54,7.07,11.81,12.85,24.52,17.01,37.92Z"/>
  <path class="st7" d="M415.6,337.63l11.55-11.57c-3.3,7.72-7.15,15.18-11.55,22.35v-10.78Z"/>
  <path class="st9" d="M414.42,302c2.96,0,5.37,2.41,5.37,5.34s-2.41,5.37-5.37,5.37-5.34-2.41-5.34-5.37,2.41-5.34,5.34-5.34ZM415.94,307.34c0-.82-.67-1.49-1.52-1.49s-1.49.67-1.49,1.49.67,1.52,1.49,1.52,1.52-.67,1.52-1.52Z"/>
  <path class="st11" d="M412.86,160.34l3.68,5.82c-5.44,2.84-10.85,5.7-16.29,8.54l-3.18-6.06c5.27-2.77,10.54-5.53,15.78-8.3Z"/>
  <path class="st13" d="M412.86,160.34c-5.24,2.77-10.51,5.53-15.78,8.3-.26.14-.51.26-.77.41-.36.19-.6.43-.87.7-3.44-3.3-7.15-6.26-11.09-8.81,4.79-3.44,9.62-6.76,14.53-9.98,1.64-1.08,3.27-2.14,4.93-3.2,3.2,4.04,6.23,8.25,9.05,12.58Z"/>
  <path class="st7" d="M407.71,344.08v16.12c-.07.1-.12.19-.19.29-15.35,20.93-35.34,38.33-58.05,50.72v-50.79c1.54.99,3.1,1.92,4.91,2.57,10.13,3.61,25.33,3.06,31.95-6.28,9.5.31,17.51-4.4,21.39-12.63Z"/>
  <path class="st5" d="M405.83,197.92c.91,1.88,1.8,3.85,2.67,5.85-5.68,1.78-10.37,6.4-11.96,14.07-2.43,11.96,4.52,23.26,13.4,32.62-4.91,7.51-12.85,12.73-22.42,11.14-2-13.88-7.55-27.14-16.77-36.95-2.41-2.55-5.03-4.88-7.92-6.93-1.71-12.61-3.99-24.83-8.54-36.81-1.95-5.1-10.22-2.89-8.28,2.29,4.6,12.1,6.95,24.32,8.59,37.12.05.24.1.48.17.7.36,1.3,1.2,2.24,2.26,2.79.26.34.58.65.99.94,20.55,14.07,25.43,42.39,19.05,66.21-15.16-4.07-31.35-1.4-43.88,9.67-11.76,10.37-16.36,27.72-9.74,42.1-17.37,5.89-36.4,7.84-54.13,7.27-18.53-.6-39.79-2.86-58.99-9.33.94-2.07,1.61-4.38,2-6.88,2.33-15.73-6.9-30.53-18.91-39.74-.29-.26-.6-.53-.99-.77-.38-.26-.77-.43-1.13-.58-10.71-5.7-22.69-7.79-33.99-5.65-4.33-23.12,3.15-48.94,22.69-63.13,1.35-.99,1.88-2.36,1.85-3.68v-.29c2.29-12.22,5.53-25,11.36-36.04,2.55-4.88-4.84-9.21-7.41-4.33-6.18,11.76-9.79,25.12-12.22,38.13-.02.19-.02.36-.05.55-4.19,3.34-7.92,7.19-11.14,11.48-6.69,8.93-11.26,19.61-13.47,30.75l-.17.02c-13.06,2.86-25.55-8.16-28.61-20.38-3.18-12.61,2.6-28.37,7.99-39.74,11.07-23.43,32.74-40.76,59.35-40.63.51,0,1.01-.05,1.54-.02,1.8.05,3.01-.84,3.63-2.07.63-.19,1.23-.55,1.78-1.18.91-1.03,1.88-2.02,2.89-2.98,33.35-32.6,108.24-31.78,140.89.91,1.01.99,1.97,2.02,2.89,3.08,1.2,1.37,2.65,1.61,3.95,1.18.31.07.65.1.99.07.53,0,1.01.02,1.52.02,25.77-.24,47.25,16.55,58.29,39.17ZM324.59,259.63c12.78-8.11,25.24-22.81,24.71-38.64-.07-2.45-.43-4.93-1.2-7.41-3.8-12.56-18.36-13.79-26.22-5.53-5.22-4.47-12.13-5.8-18.84-1.47-5.22,3.37-7.17,8.61-7.34,14.17-.07,2.55.24,5.2.82,7.75.02.36.07.75.22,1.13.12.43.29.82.48,1.15,4.26,11.14,12.94,20.88,22.18,28.17,1.47,1.15,3.46,1.78,5.2.67ZM283.23,213.37c2.69.02,5.27-2.36,5.15-5.12-.12-2.81-2.26-5.12-5.15-5.15h-.65c-2.69-.02-5.27,2.38-5.15,5.15.12,2.79,2.26,5.1,5.15,5.12h.65ZM280.63,235.77c1.61-1.61,1.32-3.83,0-5.46-2.09-2.6-4.52-4.93-6.98-7.19.67-.7,1.18-1.54,1.44-2.45.19-.6.31-1.23.29-1.88-.14-3.49-2.81-6.42-6.42-6.42h-.99c-3.37,0-6.59,2.94-6.45,6.42.05.63.17,1.23.36,1.8.36,1.15.99,2.17,1.85,2.94-2.36,2.43-4.55,5-6.54,7.72-1.23,1.68-.29,4.31,1.4,5.27,1.95,1.15,4.02.31,5.27-1.37,1.47-2,3.25-4.02,5.08-5.89,2.21,2.04,4.35,4.16,6.23,6.52,1.32,1.61,4.11,1.35,5.46,0ZM253.95,213.85c2.69.02,5.27-2.38,5.15-5.12-.14-2.81-2.26-5.12-5.15-5.15h-.67c-2.67-.02-5.24,2.38-5.12,5.15.12,2.79,2.26,5.1,5.12,5.12h.67ZM221.4,259.75c9.05-9.12,20.71-25.09,19.03-39.26-.38-3.15-1.4-6.23-3.27-9.12-6.78-10.37-18.91-9.21-25.48-1.15-8.28-5.46-20.19-3.34-23.55,7.65-.24.79-.41,1.59-.55,2.38-2.84,14.6,9.14,28.41,20.47,35.92,3.01,1.85,5.87,3.49,9.17,4.69,1.42.51,3.18-.07,4.19-1.11Z"/>
  <path class="st5" d="M400.68,324.93c2.69,10.63-1.56,25.41-15.52,23.22-2.5-.38-4.31.63-5.27,2.98-4.33,10.61-26.01,4.84-30.58-2.38-.75-1.15-2.24-2.31-3.71-2.12-19.22,2.5-18.93-23.72-11.48-34.24,11.93-16.77,34.69-18.24,51.56-8.76,7.19,5.27,12.78,12.51,14.99,21.29Z"/>
  <path class="st10" d="M399.46,142.42c-1.44.91-2.89,1.85-4.31,2.79-5.85,3.83-11.64,7.82-17.3,11.96-4.21-2.12-8.64-3.78-13.28-4.96,7.41-7.84,15.52-14.92,24.42-21.1,3.66,3.61,7.15,7.39,10.47,11.31Z"/>
  <path class="st4" d="M372.03,116.39c4.11,3.15,8.11,6.45,11.93,9.94-8.76,6.23-16.84,13.21-24.23,21-1.06,1.11-2.09,2.24-3.13,3.39-3.44-.43-6.95-.67-10.59-.55h-.02c-1.44-1.56-2.98-3.08-4.6-4.55,2.14-2.86,4.38-5.63,6.71-8.28,7.05-7.96,15.06-14.96,23.91-20.95Z"/>
  <path class="st11" d="M349.3,220.99c.53,15.83-11.93,30.53-24.71,38.64-1.73,1.11-3.73.48-5.2-.67-9.24-7.29-17.92-17.03-22.18-28.17-.19-.34-.36-.72-.48-1.15-.14-.38-.19-.77-.22-1.13-.58-2.55-.89-5.2-.82-7.75.17-5.56,2.12-10.8,7.34-14.17,6.71-4.33,13.62-3.01,18.84,1.47,7.87-8.25,22.42-7.03,26.22,5.53.77,2.48,1.13,4.96,1.2,7.41ZM339.12,230.21c.94-2.62,1.83-6.04,1.8-9.26-.02-1.83-.31-3.58-1.08-5.08-3.56-6.98-10.87-5.12-13.83,1.23-1.44,3.1-5.77,2.45-7.41,0-3.75-5.68-11.98-5.73-14.15,1.08-.26.84-.36,1.71-.41,2.6-.07,2.24.46,4.55.96,6.59,3.18,9.07,10.27,16.96,17.66,23.24,7.22-5.1,13.5-11.96,16.46-20.4Z"/>
  <path class="st3" d="M366.26,112.18c-8.64,6.11-16.46,13.09-23.38,20.96-2.31,2.62-4.55,5.34-6.66,8.16-5.12-3.85-10.85-7.12-16.99-9.89,6.01-8.4,10.06-17.78,8.71-27.43-1.13-7.92-5.68-12.8-11.28-14.75l.34-1.13c17.78,5.41,34.38,13.62,49.27,24.08ZM344.08,118.99c0-1.08-.87-1.95-1.92-1.95h-1.49v-1.49c0-1.06-.87-1.92-1.92-1.92s-1.92.87-1.92,1.92v1.49h-1.52c-1.06,0-1.92.87-1.92,1.95s.87,1.92,1.92,1.92h1.52v1.49c0,1.06.87,1.92,1.92,1.92s1.92-.87,1.92-1.92v-1.49h1.49c1.06,0,1.92-.87,1.92-1.92Z"/>
  <path class="st15" d="M342.15,117.04c1.06,0,1.92.87,1.92,1.95s-.87,1.92-1.92,1.92h-1.49v1.49c0,1.06-.87,1.92-1.92,1.92s-1.92-.87-1.92-1.92v-1.49h-1.52c-1.06,0-1.92-.87-1.92-1.92s.87-1.95,1.92-1.95h1.52v-1.49c0-1.06.87-1.92,1.92-1.92s1.92.87,1.92,1.92v1.49h1.49Z"/>
  <path class="st7" d="M341.57,356.35v58.92c-18.36,8.83-37.92,14.29-58.27,16.34v-73.16c15.08-.7,30.58-3.37,44.97-8.49,2.69,2.67,5.92,4.16,10.18,5.51,1.49.46,2.41.7,3.13.89Z"/>
  <path class="st12" d="M340.92,220.95c.02,3.22-.87,6.64-1.8,9.26-2.96,8.44-9.24,15.3-16.46,20.4-7.39-6.28-14.48-14.17-17.66-23.24-.51-2.04-1.03-4.35-.96-6.59.05-.89.14-1.76.41-2.6,2.17-6.81,10.39-6.76,14.15-1.08,1.64,2.45,5.97,3.1,7.41,0,2.96-6.35,10.27-8.2,13.83-1.23.77,1.49,1.06,3.25,1.08,5.08Z"/>
  <path class="st17" d="M315.78,96.2c8.52,2.96,5.46,14.75,3.44,20.23-1.64,4.4-4.09,8.4-6.9,12.13-11.79-4.33-24.8-6.83-38.01-7.51-2.69-4.84-5.03-10.61-3.34-16.19,3.63-12.15,16.38-9.62,22.9-2.5,1.54,1.68,4.26,1.11,5.39-.7,3.49-5.61,10.15-7.67,16.53-5.46Z"/>
  <path class="st3" d="M316.99,88.1l-.34,1.13c-6.78-2.33-15.11-.41-20.76,5.7-9.53-7.65-23.29-7.05-29.35,3.1l-4.74-.46c3.71-5.27,6.35-11.12,6.45-17.18,16.91.26,33.3,2.94,48.74,7.7Z"/>
  <path class="st11" d="M288.38,208.24c.12,2.77-2.45,5.15-5.15,5.12h-.65c-2.89-.02-5.03-2.33-5.15-5.12-.12-2.77,2.45-5.17,5.15-5.15h.65c2.89.02,5.03,2.33,5.15,5.15Z"/>
  <path class="st11" d="M280.63,230.31c1.32,1.64,1.61,3.85,0,5.46-1.35,1.35-4.14,1.61-5.46,0-1.88-2.36-4.02-4.47-6.23-6.52-1.83,1.88-3.61,3.9-5.08,5.89-1.25,1.68-3.32,2.53-5.27,1.37-1.68-.96-2.62-3.58-1.4-5.27,2-2.72,4.19-5.29,6.54-7.72-.87-.77-1.49-1.78-1.85-2.94-.19-.58-.31-1.18-.36-1.8-.14-3.49,3.08-6.42,6.45-6.42h.99c3.61,0,6.28,2.94,6.42,6.42.02.65-.1,1.28-.29,1.88-.26.91-.77,1.76-1.44,2.45,2.45,2.26,4.88,4.6,6.98,7.19Z"/>
  <path class="st7" d="M275.41,358.63v73.64c-3.56.22-6.81.31-9.89.31-16.43,0-32.67-2.29-48.36-6.78v-74.27c17.37,4.62,35.65,6.52,52.16,7.03,2.02.07,4.04.07,6.09.07Z"/>
  <path class="st11" d="M261.46,79.77l6.78.63c-.1,6.06-2.74,11.91-6.45,17.18-4.23,5.99-9.84,11.28-14.63,15.42l-.19.1c-.91,1.13-2.43,1.61-3.97.43-8.13-6.23-19.94-16.02-22.74-27.26-37.31,9.96-69.77,31.9-93.01,61.45,9.67-4.11,21.41-.41,24.64,11.45l-6.11,1.4c-.58-2.91-2.19-5.37-5.51-6.52-6.52-2.29-13.33-.14-16.91,5.58-1.13,1.8-3.85,2.38-5.39.7-3.75-4.09-9.5-6.69-14.48-5.99l-.84-6.57c3.51-.51,7.24-.05,10.78,1.3,25.45-35.97,63.25-62.58,107.2-73.5,1.9-5.53,6.18-8.56,11.02-9.21l.77,6.59c-2.41.36-4.52,1.95-5.56,5.39-1.28,4.28,1.01,8.78,3.1,12.29,3.63,6.13,8.97,11.07,14.56,15.47,2.81-2.6,5.56-5.34,8.04-8.25,2.98-3.51,5.85-7.39,7.41-11.76.55-1.56,1.3-3.95,1.49-6.3Z"/>
  <path class="st3" d="M261.79,97.57l4.74.46c-1.11,1.88-1.95,4.07-2.48,6.59-1.15,5.63-.19,11.09,2.02,16.26-30.24.22-60.29,9.98-77.71,29.52-.22.24-.38.51-.55.77-13.14-.17-25.14,3.39-35.53,9.62-.1-.55-.24-1.11-.38-1.64-3.22-11.86-14.96-15.57-24.64-11.45,23.24-29.54,55.7-51.49,93.01-61.45,2.79,11.24,14.6,21.03,22.74,27.26,1.54,1.18,3.06.7,3.97-.43l.19-.1c4.79-4.14,10.39-9.43,14.63-15.42ZM205.88,116.44c0-.89-.72-1.61-1.64-1.61h-5.82c-.89,0-1.61.72-1.61,1.61s.72,1.64,1.61,1.64h5.82c.91,0,1.64-.72,1.64-1.64ZM194.48,130.29v-8.49c0-.91-.75-1.64-1.64-1.64s-1.61.72-1.61,1.64v8.49c0,.89.72,1.61,1.61,1.61s1.64-.72,1.64-1.61ZM194.48,110.9v-8.49c0-.91-.75-1.64-1.64-1.64s-1.61.72-1.61,1.64v8.49c0,.89.72,1.61,1.61,1.61s1.64-.72,1.64-1.61ZM194.84,116.53c0-1.13-.91-2.07-2.02-2.07s-2,.94-2,2.07.89,2.07,2,2.07,2.02-.91,2.02-2.07ZM188.83,116.44c0-.89-.75-1.61-1.64-1.61h-5.82c-.89,0-1.61.72-1.61,1.61s.72,1.64,1.61,1.64h5.82c.89,0,1.64-.72,1.64-1.64ZM163.54,136.14c0-1.88-1.54-3.42-3.44-3.42s-3.42,1.54-3.42,3.42,1.54,3.44,3.42,3.44,3.44-1.54,3.44-3.44Z"/>
  <path class="st17" d="M257.9,72.63c3.15,1.11,3.83,4.09,3.56,7.15-.19,2.36-.94,4.74-1.49,6.3-1.56,4.38-4.43,8.25-7.41,11.76-2.48,2.91-5.22,5.65-8.04,8.25-5.58-4.4-10.92-9.33-14.56-15.47-2.09-3.51-4.38-8.01-3.1-12.29,1.03-3.44,3.15-5.03,5.56-5.39,3.22-.46,7,1.35,9.43,3.99,1.54,1.68,4.26,1.11,5.39-.7,2.26-3.63,6.47-5.05,10.66-3.61Z"/>
  <path class="st11" d="M259.1,208.72c.12,2.74-2.45,5.15-5.15,5.12h-.67c-2.86-.02-5-2.33-5.12-5.12-.12-2.77,2.45-5.17,5.12-5.15h.67c2.89.02,5,2.33,5.15,5.15Z"/>
  <path class="st11" d="M240.43,220.49c1.68,14.17-9.98,30.15-19.03,39.26-1.01,1.03-2.77,1.61-4.19,1.11-3.3-1.2-6.16-2.84-9.17-4.69-11.33-7.51-23.31-21.32-20.47-35.92.14-.79.31-1.59.55-2.38,3.37-10.99,15.28-13.11,23.55-7.65,6.57-8.06,18.69-9.21,25.48,1.15,1.88,2.89,2.89,5.97,3.27,9.12ZM228.74,234.37c1.95-4.31,3.54-9.14,2.81-13.93-.14-.91-.34-1.83-.67-2.74-2.65-7.34-11.43-6.86-14.12.29-.43,1.11-1.13,1.88-1.97,2.38-1.32.82-2.98.84-4.38-.02-.55-.31-1.06-.75-1.49-1.35-4.14-5.77-9.79-3.61-12.1,1.3-.41.89-.72,1.85-.89,2.91-.51,3.18.36,6.4,1.66,9.24,3.01,6.57,8.83,12.37,14.8,16.34,1.61.99,3.2,1.97,4.86,2.81,4.74-5.15,8.61-10.8,11.5-17.23Z"/>
  <path class="st12" d="M231.55,220.44c.72,4.79-.87,9.62-2.81,13.93-2.89,6.42-6.76,12.08-11.5,17.23-1.66-.84-3.25-1.83-4.86-2.81-5.97-3.97-11.79-9.77-14.8-16.34-1.3-2.84-2.17-6.06-1.66-9.24.17-1.06.48-2.02.89-2.91,2.31-4.91,7.96-7.07,12.1-1.3.43.6.94,1.03,1.49,1.35,1.4.87,3.06.84,4.38.02.84-.51,1.54-1.28,1.97-2.38,2.69-7.15,11.48-7.63,14.12-.29.34.91.53,1.83.67,2.74Z"/>
  <path class="st7" d="M209.28,349.2v74.15c-19.1-6.45-36.81-16-52.69-28.56-1.9-1.49-3.75-3.06-5.58-4.64v-33.22c1.83,1.18,3.63,2.33,5.8,3.1,10.13,3.63,25.31,3.06,31.93-6.28,6.47.22,12.27-1.9,16.5-5.87,1.35.46,2.69.89,4.04,1.32Z"/>
  <path class="st15" d="M204.25,114.82c.91,0,1.64.72,1.64,1.61s-.72,1.64-1.64,1.64h-5.82c-.89,0-1.61-.72-1.61-1.64s.72-1.61,1.61-1.61h5.82Z"/>
  <path class="st5" d="M203.09,321.97c2.69,10.63-1.56,25.41-15.49,23.22-2.53-.38-4.31.65-5.27,3.01-4.35,10.61-26.01,4.81-30.6-2.38-.75-1.15-2.21-2.33-3.71-2.14-19.22,2.53-18.93-23.72-11.45-34.24,11.91-16.74,34.69-18.21,51.53-8.76,7.22,5.27,12.78,12.51,14.99,21.29Z"/>
  <path class="st15" d="M194.48,121.8v8.49c0,.89-.75,1.61-1.64,1.61s-1.61-.72-1.61-1.61v-8.49c0-.91.72-1.64,1.61-1.64s1.64.72,1.64,1.64Z"/>
  <path class="st15" d="M194.48,102.41v8.49c0,.89-.75,1.61-1.64,1.61s-1.61-.72-1.61-1.61v-8.49c0-.91.72-1.64,1.61-1.64s1.64.72,1.64,1.64Z"/>
  <path class="st15" d="M192.82,114.46c1.11,0,2.02.94,2.02,2.07s-.91,2.07-2.02,2.07-2-.91-2-2.07.89-2.07,2-2.07Z"/>
  <path class="st15" d="M187.19,114.82c.89,0,1.64.72,1.64,1.61s-.75,1.64-1.64,1.64h-5.82c-.89,0-1.61-.72-1.61-1.64s.72-1.61,1.61-1.61h5.82Z"/>
  <path class="st15" d="M160.1,132.72c1.9,0,3.44,1.54,3.44,3.42s-1.54,3.44-3.44,3.44-3.42-1.54-3.42-3.44,1.54-3.42,3.42-3.42Z"/>
  <path class="st2" d="M147.73,269.21c-.6,6.86-.29,13.71.94,20.35-2.24.89-4.43,2-6.54,3.3-2.26,1.37-4.43,2.98-6.52,4.81-3.8,3.37-6.86,7.46-9.02,11.96h-.31l-9.5-9.5c-1.54-1.54-4.02-1.54-5.56,0l-9.02,9.02c-3.13-.36-6.16-1.11-8.81-2.74-5.89-3.66-6.95-9.62-4.91-14.6,1.06-2.65,3.03-5.03,5.58-6.64,1.8-1.13,3.95-1.88,6.28-2.07,2.24-.19,3.85-2.04,3.3-4.35-2.41-10.03,1.85-21.41,13.33-22.71.53-.07.99-.22,1.37-.46.26.34.48.67.75.99.36.46.77.87,1.15,1.3,7.03,7.94,17.03,12.46,27.5,11.36Z"/>
  <path class="st17" d="M145.78,160.56c.29,1.4.34,2.89.24,4.4-12.29,9.21-21.89,22.3-27.98,36.98-.91-.75-1.83-1.49-2.72-2.26-6.28-5.37-12.05-11.28-16.29-18.4-2.81-4.74-5.73-10.59-4.93-16.38.1-.67.24-1.32.43-2,1.64-5.44,5.05-8.01,8.95-8.56,4.98-.7,10.73,1.9,14.48,5.99,1.54,1.68,4.26,1.11,5.39-.7,3.58-5.73,10.39-7.87,16.91-5.58,3.32,1.15,4.93,3.61,5.51,6.52Z"/>
  <path class="st7" d="M143.14,353.17v29.76c-18.09-17.54-32.29-38.83-41.45-62.17l.12-.07,1.25-1.28,10.95-10.92,9.65,9.65c-.6,2.89-.87,5.8-.77,8.73.17,5.39,1.59,10.78,4.43,15.69,3.37,5.82,7.36,8.01,13.57,9.94.96.31,1.66.51,2.26.67Z"/>
  <path class="st11" d="M115.33,199.68l-5.37,4.38c-3.18-2.74-6.4-5.73-9.38-8.95-4.57,12.29-7.84,25.21-9.58,38.64-.96,7.43-1.47,15.01-1.47,22.71s.51,15.28,1.49,22.78l3.03,5.92c-2.55,1.61-4.52,3.99-5.58,6.64l-6.86-2.04c.14-.34.29-.65.46-.99-1.85-10.61-2.81-21.41-2.81-32.31,0-25.02,4.98-48.89,13.95-70.71-4.35-6.74-6.95-14.12-5.8-21.77l6.69.91c-.79,5.8,2.12,11.64,4.93,16.38,4.23,7.12,10.01,13.04,16.29,18.4Z"/>
  <path class="st3" d="M115.57,208.68c-.51,1.49-1.01,3.01-1.44,4.52-1.92,7-3.22,14.12-3.01,21.03l-2.21.05c0-1.08-.87-1.92-1.92-1.92h-3.58l2.17-5.44c.38-.99-.1-2.09-1.08-2.5-.99-.38-2.12.1-2.5,1.08l-1.42,3.56-1.42-3.56c-.41-.99-1.52-1.47-2.5-1.08-.99.41-1.47,1.52-1.08,2.5l2.17,5.44h-3.58c-.94,0-1.71.65-1.88,1.54l-1.25-.14c1.73-13.42,5-26.34,9.58-38.64,2.98,3.22,6.21,6.21,9.38,8.95,1.9,1.64,3.78,3.18,5.61,4.62Z"/>
  <path class="st3" d="M111.12,234.23c.17,5.29,1.25,10.44,3.56,15.33-13.57,2.62-20.09,14.03-18.31,27.43-1.88.53-3.68,1.3-5.34,2.26-.99-7.51-1.49-15.11-1.49-22.78s.51-15.28,1.47-22.71l1.25.14c-.02.12-.05.24-.05.38,0,1.06.87,1.92,1.92,1.92h3.58l-2.17,5.41c-.38.99.1,2.12,1.08,2.5.22.1.48.14.7.14.77,0,1.49-.46,1.8-1.23l1.42-3.56,1.42,3.56c.29.77,1.03,1.23,1.78,1.23.24,0,.48-.05.72-.14.99-.38,1.47-1.52,1.08-2.5l-2.17-5.41h3.58c1.06,0,1.92-.87,1.92-1.92l2.21-.05Z"/>
  <path class="st15" d="M106.98,232.35c1.06,0,1.92.84,1.92,1.92s-.87,1.92-1.92,1.92h-3.58l2.17,5.41c.38.99-.1,2.12-1.08,2.5-.24.1-.48.14-.72.14-.75,0-1.49-.46-1.78-1.23l-1.42-3.56-1.42,3.56c-.31.77-1.03,1.23-1.8,1.23-.22,0-.48-.05-.7-.14-.99-.38-1.47-1.52-1.08-2.5l2.17-5.41h-3.58c-1.06,0-1.92-.87-1.92-1.92,0-.14.02-.26.05-.38.17-.89.94-1.54,1.88-1.54h3.58l-2.17-5.44c-.38-.99.1-2.09,1.08-2.5.99-.38,2.09.1,2.5,1.08l1.42,3.56,1.42-3.56c.38-.99,1.52-1.47,2.5-1.08.99.41,1.47,1.52,1.08,2.5l-2.17,5.44h3.58Z"/>
  <path class="st11" d="M102.65,147.76l.84,6.57c-3.9.55-7.31,3.13-8.95,8.56-.19.67-.34,1.32-.43,2l-6.69-.91c.05-.43.12-.87.22-1.3,1.88-9.07,7.99-13.93,15.01-14.92Z"/>
  <path class="st8" d="M322.61,260.86c-1.19,0-2.45-.47-3.62-1.39-7.51-5.93-17.48-15.66-22.37-28.41-.22-.39-.4-.82-.52-1.26-.16-.41-.21-.86-.24-1.21-.62-2.74-.89-5.38-.82-7.86.2-6.61,2.77-11.56,7.64-14.7,6.3-4.07,13.25-3.64,19.15,1.13,4.24-4.16,10.26-5.91,15.85-4.58,5.32,1.27,9.34,5.21,11.04,10.81.75,2.41,1.15,4.89,1.23,7.58.56,16.86-13.12,31.66-25.01,39.21-.71.46-1.51.68-2.33.68ZM311.53,204.58c-2.74,0-5.51.85-8.15,2.55-4.49,2.89-6.85,7.48-7.04,13.64-.07,2.38.2,4.94.8,7.58v.1c.03.29.07.62.19.95.12.41.26.75.44,1.06l.04.09c4.77,12.49,14.59,22.06,21.98,27.89.57.45,2.58,1.83,4.44.64h0c11.6-7.36,24.95-21.75,24.41-38.07-.08-2.57-.46-4.94-1.17-7.24-1.58-5.23-5.17-8.75-10.1-9.93-5.33-1.27-11.09.51-15.04,4.65l-.43.45-.47-.4c-3.08-2.64-6.48-3.97-9.91-3.97Z"/>
  <path class="st8" d="M218.32,261.69c-.46,0-.91-.07-1.33-.22-3.21-1.17-6.03-2.75-9.29-4.75-11.41-7.56-23.67-21.66-20.77-36.6.18-.98.35-1.74.57-2.45,1.5-4.89,4.79-8.47,9.28-10.08,4.74-1.7,10.21-1.04,14.77,1.77,3.55-4.09,8.57-6.38,13.57-6.11,5.01.26,9.48,3.02,12.58,7.76,1.82,2.8,2.95,5.96,3.37,9.4,2.01,16.93-14.19,34.74-19.21,39.8-.92.95-2.27,1.48-3.54,1.48ZM202.2,207.97c-1.7,0-3.39.28-4.98.85-4.09,1.47-7.1,4.75-8.47,9.24-.2.66-.37,1.37-.54,2.31-2.78,14.31,9.14,27.94,20.19,35.26,3.17,1.95,5.93,3.49,9.03,4.62,1.09.38,2.59-.02,3.5-.95h0c10.12-10.21,20.39-25.74,18.85-38.73-.4-3.24-1.46-6.21-3.17-8.84-2.87-4.39-6.98-6.94-11.56-7.17-4.75-.26-9.56,2.02-12.87,6.08l-.37.46-.49-.32c-2.79-1.84-5.99-2.79-9.12-2.79Z"/>
  <circle class="st14" cx="737.33" cy="255.61" r="221.64"/>
  <path class="st11" d="M926.46,297.97c.05.43.02.87,0,1.3-.55,7.1-4.31,11.38-9.43,14-3.78,11.88-8.73,23.41-14.84,34.31-15.16,27.02-37.05,50.04-63.27,66.57-20.83,13.16-43.69,21.89-67.97,25.98-10.37,1.73-20.81,2.62-31.06,2.62-12.37,0-24.78-1.23-36.86-3.66-24.44-4.93-47.32-14.58-67.97-28.7-24.85-16.99-45.42-39.99-59.52-66.55-10.22-19.25-16.91-40.27-19.9-61.88-4.98-7.1-8.04-14.96-6.81-23.14l6.69.96c-.79,5.65,2.07,11.38,4.84,16.02,5.32,8.97,13.18,16.05,21.34,22.42.41-.36.82-.77,1.23-1.13.36-4.43.99-8.83,1.88-13.14,2.29-11.14,7.48-18.31,16.34-22.57,1.68-.82,3.42-1.92,5.24-3.1-.02-1.49-.22-2.94-.7-4.26l6.21-1.01c.19.53.34,1.08.48,1.64.75-.41,1.54-.79,2.33-1.15.63-6.38,1.71-12.63,3.08-18.84-2.14-.1-3.87-1.83-3.92-3.99-.02-2.26,1.78-4.14,4.04-4.19.63,0,1.28-.05,1.9-.07,1.23-4.5,2.57-8.97,4.04-13.42l-3.46-.51c-2.04-.29-3.44-2.07-3.44-4.09-5.03-.36-9.74-1.01-12.97-1.52-12.56-2.02-16.77-8.76-18.09-14.05-.38-1.59-.51-3.2-.31-4.76l6.81.41c-.12.89-.07,1.83.14,2.72,1.2,4.84,5.32,7.75,12.53,8.93,4.31.67,14.63,2.09,22.71,1.59,1.47-3.99,2.98-7.96,4.52-11.91-1.52.19-3.15.36-4.88.48l-.63-6.81c1.3-.1,2.55-.24,3.73-.36-4.79-3.8-8.61-8.64-11.14-14.19l6.35-2.6c2.36,5.08,6.06,9.41,10.78,12.68,3.75-9.53,7.46-19.1,10.71-28.75-2.14-.67-4.38-.91-6.64-.75l-.24-6.81c3.03-.22,6.09.14,8.97,1.03.65-2.09,1.3-4.19,1.88-6.28.6-2.12,3.08-3.73,5.27-2.98,8.06,2.72,15.13,6.38,21.94,11.36,22.49-7.84,46.84-11.16,70.83-9.72,8.71.53,17.37,1.68,25.89,3.49-3.54-8.47-5.05-17.3,2.5-25.17.65-.67,1.32-1.28,2.02-1.8,7.48-5.68,17.63-3.54,24.68,2.17,6.4-7.17,16.55-9.82,24.76-3.58.46.34.91.7,1.35,1.11,7.63,6.93,7,16.84,3.85,25.72l2.19,6.35c-2.74.94-4.81,3.03-6.01,6.95,4.5,11.88,9.05,23.77,13.67,35.63l.1-.02c5.82.41,11.4.63,16.89.72l-.12,6.81c-4.62-.07-9.31-.22-14.15-.51,1.25,3.2,2.55,6.4,3.83,9.6,2.6-.82,5.15-1.64,7.43-2.41,2.12-.7,4.47.46,5.2,2.6.7,2.17-.46,4.5-2.62,5.22-2.14.7-4.52,1.47-6.98,2.24.67,1.66,1.32,3.32,2,4.98,1.23,3.03,2.31,6.01,3.3,9.02,1.28-.05,2.57-.1,3.99-.19,2.31-.12,4.21,1.59,4.35,3.85.12,2.26-1.59,4.21-3.85,4.35-.75.05-1.4.07-2.09.1,1.59,5.97,2.77,11.91,3.66,17.88,1.88-.07,3.71-.07,5.46.07l-.38,6.81c-1.37-.1-2.77-.12-4.21-.07.14,1.4.26,2.79.38,4.21.82,9.38,1.06,18.96,1.03,28.99,5.97,2.45,11.14,6.04,15.18,10.49,1.85,2.02,3.54,4.19,4.84,6.54.38.67.65,1.42.96,2.14h1.83c13.76.19,28.65-.63,29.5-11.64.02-.17.02-.34.02-.51l6.81-.26ZM895.81,337.6c3.51-6.78,6.59-13.79,9.19-20.95-4.02.51-8.06.63-11.6.63-.99,0-1.92-.02-2.81-.02,1.01,4.88.99,10.1.02,15.18l5.2,5.17ZM891.87,344.82l-3.9-3.9c-1.15,2.62-2.53,5.12-4.28,7.36-5.24,6.66-12.34,10.2-20.21,10.2-2.48,0-5.03-.36-7.6-1.06l-.89-.26c-.82-.24-1.54-.46-2.12-.46-.43,0-1.11.22-1.8.43l-.96.29c-3.27.94-6.71.99-9.98.34v43.21c21.1-14.7,38.83-33.95,51.75-56.15ZM877.21,343.2c6.64-8.44,7.94-22.04,2.96-30.96-5.41-9.72-17.68-16.24-31.2-16.58-12.7-.36-23.31,4.69-28.77,13.42-3.56,5.68-4.5,12.25-2.45,17.13,1.35,3.22,3.95,5.29,6.95,7.67.91.72,1.85,1.47,2.79,2.29,2,1.71,3.15,3.83,4.16,5.7.36.65.72,1.3,1.13,1.92,3.08,4.84,9.55,7.29,15.06,5.73l.77-.24c1.08-.34,2.43-.77,3.99-.82h.31c1.68,0,3.2.46,4.4.79l.72.22c9.67,2.67,15.78-1.95,19.17-6.28ZM858.76,288.64c0-1.8-.02-3.58-.07-5.34-.36-17.42-2.04-33.49-6.47-49.73-2.84.05-5.56.19-8.71.6-.17.02-.36.05-.53.05-2.04,0-3.8-1.52-4.07-3.58-.31-2.24,1.28-4.31,3.51-4.6,2.67-.36,5.03-.53,7.34-.63-1.28-3.8-2.67-7.65-4.28-11.55-1.4.46-2.79.89-4.09,1.32-.43.14-.87.22-1.3.22-1.73,0-3.34-1.08-3.9-2.81-.72-2.14.43-4.47,2.6-5.2,1.15-.38,2.38-.77,3.61-1.18-8.66-21.39-16.67-43.06-24.8-64.65-5.7,4.14-11.38,8.3-17.08,12.46-.12.1-.26.14-.38.22l-.14.1c-.87.65-2.04.89-3.46.36-4.21-1.59-8.49-2.96-12.85-4.16-29.4-8.23-61.16-8.11-90.68-.24-4.4,1.18-8.78,2.5-13.11,4.04-1.13.91-2.69,1.13-4.28-.05l-.05-.02c-5.63-4.33-11.09-7.48-17.47-10.06-6.33,20.91-15.61,41.31-23.12,62.1l6.06.89c1.49.22,2.62,1.23,3.15,2.53.26.67.43,1.37.31,2.12-.26,1.83-1.71,3.15-3.44,3.42-.22.02-.41.1-.6.1s-.41,0-.6-.02l-7.63-1.11c-1.32,3.92-2.55,7.89-3.66,11.88,2.21-.12,4.4-.31,6.59-.48,1.06-.07,2.14-.12,3.18-.22,2.26-.22,4.26,1.47,4.45,3.73.22,2.26-1.47,4.26-3.73,4.45-2.89.26-5.82.46-8.76.63-1.28.07-2.55.14-3.83.19-.77,3.34-1.44,6.71-2,10.08-.38,2.31-.7,4.62-.96,6.95,5.32-.02,10.68,2.02,14.58,5.63,1.28,1.2,2.33,2.48,3.34,3.71.43.51.84,1.01,1.28,1.52.96,1.11,2.38,1.97,3.9,2.91,1.8,1.11,3.85,2.38,5.53,4.31,10.06,11.48,9.72,33.18,9.46,50.6v.31l6.62-6.62c1.54-1.54,4.02-1.54,5.56,0l30.27,30.27,30.24-30.27c1.47-1.47,4.09-1.47,5.58,0l30.24,30.27,30.27-30.27c.72-.75,1.73-1.15,2.77-1.15s2.04.41,2.79,1.15l2.84,2.84c.6-4.04,2.07-8.11,4.45-11.91,7.03-11.24,20.45-17.66,35.97-17.3,3.3.1,6.47.55,9.58,1.2ZM832.25,406.19v-51.65c-2.53-1.64-4.76-3.73-6.4-6.3-.51-.77-.96-1.61-1.4-2.43-.79-1.42-1.47-2.67-2.33-3.39-.84-.72-1.68-1.42-2.55-2.09-3.39-2.69-7.22-5.73-9.41-10.92-.05-.1-.07-.22-.12-.34l-6.9-6.9-29.09,29.11v77.81c20.67-4.07,40.23-11.74,58.2-22.88ZM829.51,128.87c.55-14.07-14.41-19.1-21.8-7.27-1.13,1.78-3.85,2.36-5.39.7-6.66-7.29-19.58-8.93-22.88,2.5-1.78,6.13,1.11,11.55,3.95,16.74,4.6,1.23,9.17,2.67,13.64,4.28l.19.07.12-.1c6.69-4.88,13.4-9.79,20.11-14.68,2.43-1.78,5.41.24,6.3,2.55.77,2.09,1.56,4.16,2.36,6.26,1.76-3.49,3.22-7.1,3.39-11.07ZM766.16,430.44v-79.18l-29.09-29.11-29.11,29.11v78.29c19.01,3.49,38.59,3.85,58.2.89ZM700.1,427.89v-76.63l-29.11-29.11-29.09,29.11v51.32c17.83,12.03,37.39,20.5,58.2,25.31ZM637.95,344.07l15.54-15.54c-.07-.29-.17-.55-.17-.84l-.02-.07c0-2.38.05-4.96.1-7.63.19-13.54.46-29.9-4.31-40.13-.87-1.88-1.9-3.54-3.13-4.93-.87-1.01-2.17-1.8-3.68-2.74-1.85-1.15-3.97-2.45-5.75-4.5-.48-.53-.94-1.11-1.42-1.66-.89-1.08-1.71-2.09-2.62-2.94-2.62-2.45-6.38-3.71-9.94-3.42-3.58.31-7.24,2.67-11.12,5.17-2.19,1.4-4.43,2.84-6.74,3.95-6.52,3.15-10.08,8.18-11.86,16.82-2.57,12.51-2.84,25.67-.84,38.33l10.13-10.13c.75-.72,1.76-1.11,2.79-1.11s2.04.38,2.79,1.11l14.34,14.34,15.9,15.93ZM634.01,396.93v-45.66l-22.93-22.95-6.16-6.16-6.35,6.35-12.7,12.73c11.91,21.68,28.41,40.76,48.14,55.7ZM582.06,333.87l3.08-3.08c-.24-.41-.43-.84-.53-1.35-1.49-7.58-2.21-15.37-2.14-23.17-.72.14-1.49,0-2.29-.6-3.49-2.67-7.51-5.85-11.48-9.41,3.01,12.99,7.48,25.62,13.35,37.6Z"/>
  <path class="st11" d="M926.46,297.97l-6.81.26c0-3.58-2.84-6.9-5.77-8.69-3.83-2.33-8.61-3.18-13.23-4.02-1.23-.22-2.24-1.08-2.65-2.26-.02-.12-.07-.22-.1-.34-.41-1.35-3.22-9.19-3.75-10.27-1.88-3.15-4.52-6.13-7.58-8.52-4.62-3.61-10.08-5.61-16.46-6.06l.38-6.81c7.82.51,14.48,2.94,20.28,7.48,3.71,2.89,6.93,6.54,9.31,10.49.05.1,2.79,5.53,3.92,9.94,3.18.6,6.54,1.37,9.74,2.69,1.23-8.37,1.9-16.82,1.9-25.33,0-13.79-1.64-27.19-4.64-40.08-1.68-4.19-4.33-8.18-7.53-11.88s-6.95-7.12-10.87-10.1c-3.99,0-7.82.02-11.57.05v-6.83h1.3c-.89-.51-1.76-.99-2.62-1.44-3.13-1.61-6.38-2.96-9.82-4.38-4.86-2-9.89-4.09-14.56-7-5.56-3.46-8.4-7.55-8.47-12.17-.05-4.74,3.2-9.31,8.11-11.38,4.11-1.71,8.49-1.52,11.86-1.13,4.81.53,10.32,1.85,15.64,3.66-6.81-9.41-14.48-18.14-22.98-26.03-6.23,1.71-8.9,7.89-9.24,13.42-.07.99-.55,1.88-1.32,2.5-.77.6-1.76.84-2.74.65-3.78-.72-7.1-.91-9.74,0l-2.19-6.35c2.74-.91,5.94-1.25,9.62-.89,1.28-6.54,4.86-11.67,9.91-14.41-6.88-5.92-14.24-11.28-22.01-16.07-12.73-7.84-26.51-14.1-41.09-18.53l-7.12-1.08c.89-2.45,2.21-7,1.13-10.2l6.54-.55c.1.46.22.91.29,1.4,77.52,22.47,134.39,94.12,134.39,178.85,0,10.83-1.01,21.58-2.86,32.17,2.12,2.79,3.34,6.06,3.39,9.26ZM903.8,193.13c-3.61-9.31-7.96-18.26-13.04-26.73-6.88-3.87-17.03-7.19-24.83-8.06-2.38-.26-5.41-.43-7.77.55-1.76.75-3.08,2.33-3.06,3.68.02,2.17,2.89,4.26,4.6,5.32,4.09,2.57,8.59,4.43,13.33,6.38,3.44,1.44,7.03,2.91,10.47,4.69,6.71,3.46,13.95,8.32,20.31,14.17Z"/>
  <path class="st6" d="M919.65,298.24c0,.17,0,.34-.02.51-.84,11.02-15.73,11.84-29.5,11.64h-1.83c-.31-.72-.58-1.47-.96-2.14-1.3-2.36-2.98-4.52-4.84-6.54-4.04-4.45-9.21-8.04-15.18-10.49.02-10.03-.22-19.61-1.03-28.99-.12-1.42-.24-2.81-.38-4.21,1.44-.05,2.84-.02,4.21.07,6.38.46,11.84,2.45,16.46,6.06,3.06,2.38,5.7,5.37,7.58,8.52.53,1.08,3.34,8.93,3.75,10.27.02.12.07.22.1.34.41,1.18,1.42,2.04,2.65,2.26,4.62.84,9.41,1.68,13.23,4.02,2.94,1.78,5.77,5.1,5.77,8.69Z"/>
  <path class="st1" d="M915.66,256.55c0,8.52-.67,16.96-1.9,25.33-3.2-1.32-6.57-2.09-9.74-2.69-1.13-4.4-3.87-9.84-3.92-9.94-2.38-3.95-5.61-7.6-9.31-10.49-5.8-4.55-12.46-6.98-20.28-7.48-1.76-.14-3.58-.14-5.46-.07-.89-5.97-2.07-11.91-3.66-17.88.7-.02,1.35-.05,2.09-.1,2.26-.14,3.97-2.09,3.85-4.35-.14-2.26-2.04-3.97-4.35-3.85-1.42.1-2.72.14-3.99.19-.99-3.01-2.07-5.99-3.3-9.02-.67-1.66-1.32-3.32-2-4.98,2.45-.77,4.84-1.54,6.98-2.24,2.17-.72,3.32-3.06,2.62-5.22-.72-2.14-3.08-3.3-5.2-2.6-2.29.77-4.84,1.59-7.43,2.41-1.28-3.2-2.57-6.4-3.83-9.6,4.84.29,9.53.43,14.15.51,3.2.07,6.35.1,9.53.1,3.49,0,6.98-.02,10.54-.05,3.75-.02,7.58-.05,11.57-.05,3.92,2.98,7.67,6.4,10.87,10.1s5.85,7.7,7.53,11.88c3.01,12.9,4.64,26.3,4.64,40.08ZM910.37,245.53c0-1.06-.87-1.92-1.92-1.92h-3.78v-5.8c0-1.06-.87-1.92-1.92-1.92s-1.92.87-1.92,1.92v5.8h-3.46c-1.06,0-1.92.87-1.92,1.92s.87,1.92,1.92,1.92h3.46v5.77c0,1.08.87,1.92,1.92,1.92s1.92-.84,1.92-1.92v-5.77h3.78c1.06,0,1.92-.87,1.92-1.92ZM890.74,215.16c0-2.96-2.41-5.37-5.34-5.37s-5.37,2.41-5.37,5.37,2.41,5.34,5.37,5.34,5.34-2.41,5.34-5.34Z"/>
  <path class="st0" d="M908.44,243.6c1.06,0,1.92.87,1.92,1.92s-.87,1.92-1.92,1.92h-3.78v5.77c0,1.08-.87,1.92-1.92,1.92s-1.92-.84-1.92-1.92v-5.77h-3.46c-1.06,0-1.92-.87-1.92-1.92s.87-1.92,1.92-1.92h3.46v-5.8c0-1.06.87-1.92,1.92-1.92s1.92.87,1.92,1.92v5.8h3.78Z"/>
  <path class="st1" d="M905,316.64c-2.6,7.17-5.68,14.17-9.19,20.95l-5.2-5.17c.96-5.08.99-10.3-.02-15.18.89,0,1.83.02,2.81.02,3.54,0,7.58-.12,11.6-.63Z"/>
  <path class="st7" d="M887.97,340.92l3.9,3.9c-12.92,22.21-30.65,41.45-51.75,56.15v-43.21c3.27.65,6.71.6,9.98-.34l.96-.29c.7-.22,1.37-.43,1.8-.43.58,0,1.3.22,2.12.46l.89.26c2.57.7,5.12,1.06,7.6,1.06,7.87,0,14.96-3.54,20.21-10.2,1.76-2.24,3.13-4.74,4.28-7.36Z"/>
  <path class="st0" d="M885.39,209.8c2.94,0,5.34,2.41,5.34,5.37s-2.41,5.34-5.34,5.34-5.37-2.41-5.37-5.34,2.41-5.37,5.37-5.37ZM886.89,215.16c0-.84-.67-1.52-1.49-1.52s-1.49.67-1.49,1.52.65,1.49,1.49,1.49,1.49-.67,1.49-1.49Z"/>
  <path class="st1" d="M885.39,213.65c.82,0,1.49.67,1.49,1.52s-.67,1.49-1.49,1.49-1.49-.67-1.49-1.49.65-1.52,1.49-1.52Z"/>
  <path class="st6" d="M882.34,187.69h-1.35c-6.74.05-13.26.07-19.9-.02-5.49-.1-11.07-.31-16.89-.72l-.1.02c-4.62-11.86-9.17-23.75-13.67-35.63,1.2-3.92,3.27-6.01,6.01-6.95,2.65-.91,5.97-.72,9.74,0,.99.19,1.97-.05,2.74-.65.77-.63,1.25-1.52,1.32-2.5.34-5.53,3.01-11.72,9.24-13.42,8.49,7.89,16.17,16.62,22.98,26.03-5.32-1.8-10.83-3.13-15.64-3.66-3.37-.38-7.75-.58-11.86,1.13-4.91,2.07-8.16,6.64-8.11,11.38.07,4.62,2.91,8.71,8.47,12.17,4.67,2.91,9.7,5,14.56,7,3.44,1.42,6.69,2.77,9.82,4.38.87.46,1.73.94,2.62,1.44Z"/>
  <path class="st11" d="M881.04,187.69v6.83c-3.56.02-7.05.05-10.54.05-3.18,0-6.33-.02-9.53-.1l.12-6.81c6.64.1,13.16.07,19.9.02h.05Z"/>
  <path class="st2" d="M880.17,312.24c4.98,8.93,3.68,22.52-2.96,30.96-3.39,4.33-9.5,8.95-19.17,6.28l-.72-.22c-1.2-.34-2.72-.79-4.4-.79h-.31c-1.56.05-2.91.48-3.99.82l-.77.24c-5.51,1.56-11.98-.89-15.06-5.73-.41-.63-.77-1.28-1.13-1.92-1.01-1.88-2.17-3.99-4.16-5.7-.94-.82-1.88-1.56-2.79-2.29-3.01-2.38-5.61-4.45-6.95-7.67-2.04-4.88-1.11-11.45,2.45-17.13,5.46-8.73,16.07-13.79,28.77-13.42,13.52.34,25.79,6.86,31.2,16.58Z"/>
  <path class="st2" d="M858.69,283.3c.05,1.76.07,3.54.07,5.34-3.1-.65-6.28-1.11-9.58-1.2-15.52-.36-28.94,6.06-35.97,17.3-2.38,3.8-3.85,7.87-4.45,11.91l-2.84-2.84c-.75-.75-1.73-1.15-2.79-1.15s-2.04.41-2.77,1.15l-30.27,30.27-30.24-30.27c-1.49-1.47-4.11-1.47-5.58,0l-30.24,30.27-30.27-30.27c-1.54-1.54-4.02-1.54-5.56,0l-6.62,6.62v-.31c.26-17.42.6-39.12-9.46-50.6-1.68-1.92-3.73-3.2-5.53-4.31-1.52-.94-2.94-1.8-3.9-2.91-.43-.51-.84-1.01-1.28-1.52-1.01-1.23-2.07-2.5-3.34-3.71-3.9-3.61-9.26-5.65-14.58-5.63.26-2.33.58-4.64.96-6.95.55-3.37,1.23-6.74,2-10.08,1.28-.05,2.55-.12,3.83-.19,2.94-.17,5.87-.36,8.76-.63,2.26-.19,3.95-2.19,3.73-4.45-.19-2.26-2.19-3.95-4.45-3.73-1.03.1-2.12.14-3.18.22-2.19.17-4.38.36-6.59.48,1.11-3.99,2.33-7.96,3.66-11.88l7.63,1.11c.19.02.41.02.6.02s.38-.07.6-.1c1.73-.26,3.18-1.59,3.44-3.42.12-.75-.05-1.44-.31-2.12-.53-1.3-1.66-2.31-3.15-2.53l-6.06-.89c7.51-20.79,16.79-41.19,23.12-62.1,6.38,2.57,11.84,5.73,17.47,10.06l.05.02c1.59,1.18,3.15.96,4.28.05,4.33-1.54,8.71-2.86,13.11-4.04,29.52-7.87,61.28-7.99,90.68.24,4.35,1.2,8.64,2.57,12.85,4.16,1.42.53,2.6.29,3.46-.36l.14-.1c.12-.07.26-.12.38-.22,5.7-4.16,11.38-8.32,17.08-12.46,8.13,21.58,16.14,43.26,24.8,64.65-1.23.41-2.45.79-3.61,1.18-2.17.72-3.32,3.06-2.6,5.2.55,1.73,2.17,2.81,3.9,2.81.43,0,.87-.07,1.3-.22,1.3-.43,2.69-.87,4.09-1.32,1.61,3.9,3.01,7.75,4.28,11.55-2.31.1-4.67.26-7.34.63-2.24.29-3.83,2.36-3.51,4.6.26,2.07,2.02,3.58,4.07,3.58.17,0,.36-.02.53-.05,3.15-.41,5.87-.55,8.71-.6,4.43,16.24,6.11,32.31,6.47,49.73ZM799.58,263.79c14.72-9.33,29.11-27.47,23.51-46-3.8-12.53-18.36-13.76-26.22-5.51-5.22-4.47-12.1-5.8-18.81-1.47-7.63,4.93-8.3,13.79-6.52,21.89.02.36.1.75.24,1.13.1.43.26.79.46,1.13,4.26,11.16,12.94,20.86,22.16,28.17,1.47,1.15,3.46,1.76,5.2.65ZM759.69,219.62c6.62,0,6.64-10.27,0-10.27s-6.62,10.27,0,10.27ZM752.69,239.18c1.64-1.61,1.28-3.8,0-5.44-1.32-1.71-2.77-3.3-4.21-4.86l.17-.19.12-.17c1.95-1.71,3.22-4.23,3.22-7.1,0-4.74-3.73-7.92-9.24-7.92-5.15,0-8.35,3.03-8.35,7.92,0,3.08,1.47,5.82,3.68,7.51-1.66,1.85-3.27,3.75-4.74,5.77-1.23,1.68-.29,4.28,1.37,5.27,1.95,1.13,4.07.31,5.27-1.37,1.01-1.42,2.14-2.72,3.3-4.02,1.37,1.49,2.72,2.98,3.97,4.6,1.28,1.64,4.09,1.35,5.44,0ZM726.06,219.62c2.69,0,5.24-2.36,5.12-5.15-.12-2.77-2.24-5.12-5.12-5.12h-.65c-2.69,0-5.24,2.36-5.12,5.12.12,2.79,2.24,5.15,5.12,5.15h.65ZM695.33,263.74c11.07-11.16,26.06-32.55,15.73-48.33-6.76-10.37-18.86-9.21-25.45-1.15-8.25-5.46-20.14-3.37-23.51,7.65-4.72,15.45,7.96,30.34,19.9,38.25,3.01,1.83,5.87,3.49,9.17,4.67,1.4.51,3.15-.07,4.16-1.08Z"/>
  <path class="st1" d="M853.81,122.73c-5.05,2.74-8.64,7.87-9.91,14.41-3.68-.36-6.88-.02-9.62.89,3.15-8.88,3.78-18.79-3.85-25.72-.43-.41-.89-.77-1.35-1.11l2.72-4.55c7.77,4.79,15.13,10.15,22.01,16.07Z"/>
  <path class="st7" d="M832.25,354.54v51.65c-17.97,11.14-37.53,18.81-58.2,22.88v-77.81l29.09-29.11,6.9,6.9c.05.12.07.24.12.34,2.19,5.2,6.01,8.23,9.41,10.92.87.67,1.71,1.37,2.55,2.09.87.72,1.54,1.97,2.33,3.39.43.82.89,1.66,1.4,2.43,1.64,2.57,3.87,4.67,6.4,6.3Z"/>
  <path class="st1" d="M831.79,106.66l-2.72,4.55c-8.2-6.23-18.36-3.58-24.76,3.58-7.05-5.7-17.2-7.84-24.68-2.17l-6.01-1.2c6.78-6.18,14.31-14.34,17.08-23.29,14.58,4.43,28.37,10.68,41.09,18.53Z"/>
  <path class="st17" d="M807.71,121.6c7.39-11.84,22.35-6.81,21.8,7.27-.17,3.97-1.64,7.58-3.39,11.07-.79-2.09-1.59-4.16-2.36-6.26-.89-2.31-3.87-4.33-6.3-2.55-6.71,4.88-13.42,9.79-20.11,14.68l-.31.02c-4.47-1.61-9.05-3.06-13.64-4.28-2.84-5.2-5.73-10.61-3.95-16.74,3.3-11.43,16.22-9.79,22.88-2.5,1.54,1.66,4.26,1.08,5.39-.7Z"/>
  <path class="st11" d="M823.08,217.79c5.61,18.53-8.78,36.67-23.51,46-1.73,1.11-3.73.51-5.2-.65-9.21-7.31-17.9-17.01-22.16-28.17-.19-.34-.36-.7-.46-1.13-.14-.38-.22-.77-.24-1.13-1.78-8.11-1.11-16.96,6.52-21.89,6.71-4.33,13.59-3.01,18.81,1.47,7.87-8.25,22.42-7.03,26.22,5.51ZM814.11,234.39c1.44-4.09,2.84-10.18.72-14.31-3.58-6.95-10.87-5.12-13.83,1.23-1.44,3.13-5.77,2.45-7.39,0-3.75-5.65-11.98-5.7-14.15,1.08-.91,2.91-.17,6.33.55,9.19,3.18,9.05,10.25,16.94,17.63,23.22,7.22-5.1,13.5-11.96,16.46-20.4Z"/>
  <path class="st12" d="M814.83,220.07c2.12,4.14.72,10.22-.72,14.31-2.96,8.44-9.24,15.3-16.46,20.4-7.39-6.28-14.46-14.17-17.63-23.22-.72-2.86-1.47-6.28-.55-9.19,2.17-6.78,10.39-6.74,14.15-1.08,1.61,2.45,5.94,3.13,7.39,0,2.96-6.35,10.25-8.18,13.83-1.23Z"/>
  <path class="st11" d="M791.25,76.3l-6.54.55c-.51-1.44-1.49-2.62-3.22-3.22-4.16-1.44-8.37-.02-10.63,3.61-1.13,1.78-3.85,2.36-5.39.7-4.23-4.62-12.53-6.69-14.96,1.4-1.28,4.26,1.01,8.76,3.08,12.27,3.66,6.13,9,11.04,14.56,15.45,2.81-2.6,5.53-5.32,8.04-8.23,2.98-3.51,5.82-7.39,7.41-11.76l7.12,1.08c-2.77,8.95-10.3,17.11-17.08,23.29-.96.87-1.92,1.71-2.84,2.5l-.19.12c-.91,1.13-2.43,1.59-3.97.43-2.31-1.78-4.91-3.85-7.53-6.13-8.32-7.31-16.67-17.06-15.69-27.64-1.15-.02-2.33-.1-3.51-.1-37.56,0-72.34,11.88-100.95,32.05,1.66.22,3.27.46,4.86.77,1.44.31,2.55,1.52,2.72,2.98.17,1.47-.65,2.89-2,3.51-7.84,3.54-14.46,10.01-18.21,17.76-2.17,4.55-3.32,9.29-3.51,13.98l5.39,4.23c-1.32,1.52-2.43,3.27-3.3,5.24-.19.38-.43.7-.72.99.19.67.38,1.35.63,2,.29.75.6,1.49.94,2.21l-6.35,2.6c-.36-.79-.7-1.61-1.01-2.43-3.83-10.2-3.18-21.48,1.78-31.78,2.96-6.13,7.43-11.6,12.85-15.78-1.28-.07-2.57-.12-3.9-.12-3.22,0-6.5.24-9.74.77l-1.03-6.71c1.35-.24,2.69-.41,4.04-.55,32.07-26.22,72.99-41.98,117.53-41.98,2.77,0,5.53.1,8.28.22,5.15-4.55,13.23-4.4,19.34.07,7.67-7.41,20.81-5.61,23.75,5.68Z"/>
  <path class="st17" d="M784.71,76.85c1.08,3.2-.24,7.75-1.13,10.2-1.59,4.38-4.43,8.25-7.41,11.76-2.5,2.91-5.22,5.63-8.04,8.23-5.56-4.4-10.9-9.31-14.56-15.45-2.07-3.51-4.35-8.01-3.08-12.27,2.43-8.08,10.73-6.01,14.96-1.4,1.54,1.66,4.26,1.08,5.39-.7,2.26-3.63,6.47-5.05,10.63-3.61,1.73.6,2.72,1.78,3.22,3.22Z"/>
  <path class="st1" d="M773.62,111.42l6.01,1.2c-.7.53-1.37,1.13-2.02,1.8-7.55,7.87-6.04,16.7-2.5,25.17-8.52-1.8-17.18-2.96-25.89-3.49l.19-3.15c.77,0,1.49-.46,1.8-1.2l1.42-3.58,1.42,3.58c.29.75,1.01,1.2,1.78,1.2.24,0,.48-.05.72-.14.99-.38,1.47-1.52,1.06-2.5l-2.14-5.41h3.56c1.08,0,1.92-.87,1.92-1.92s-.84-1.92-1.92-1.92h-3.56l2.14-5.41c.41-.99-.07-2.09-1.06-2.5-.24-.1-.46-.14-.7-.14l3.22-4.64c2.62,2.29,5.22,4.35,7.53,6.13,1.54,1.15,3.06.7,3.97-.43l.19-.12c.91-.79,1.88-1.64,2.84-2.5Z"/>
  <path class="st7" d="M766.16,351.26v79.18c-19.61,2.96-39.19,2.6-58.2-.89v-78.29l29.11-29.11,29.09,29.11Z"/>
  <path class="st11" d="M759.69,209.34c6.64,0,6.62,10.27,0,10.27s-6.59-10.27,0-10.27Z"/>
  <path class="st0" d="M759.04,121.05c1.08,0,1.92.87,1.92,1.92s-.84,1.92-1.92,1.92h-3.56l2.14,5.41c.41.99-.07,2.12-1.06,2.5-.24.1-.48.14-.72.14-.77,0-1.49-.46-1.78-1.2l-1.42-3.58-1.42,3.58c-.31.75-1.03,1.2-1.8,1.2-.24,0-.48-.05-.7-.14-.99-.38-1.47-1.52-1.08-2.5l2.17-5.41h-3.58c-1.06,0-1.92-.87-1.92-1.92s.87-1.92,1.92-1.92h3.58l-2.17-5.41c-.38-.99.1-2.09,1.08-2.5.99-.38,2.09.1,2.5,1.08l1.42,3.56,1.42-3.56c.29-.75,1.03-1.23,1.8-1.23.24,0,.46.05.7.14.99.41,1.47,1.52,1.06,2.5l-2.14,5.41h3.56Z"/>
  <path class="st1" d="M759.09,108.34l-3.22,4.64c-.77,0-1.52.48-1.8,1.23l-1.42,3.56-1.42-3.56c-.41-.99-1.52-1.47-2.5-1.08-.99.41-1.47,1.52-1.08,2.5l2.17,5.41h-3.58c-1.06,0-1.92.87-1.92,1.92s.87,1.92,1.92,1.92h3.58l-2.17,5.41c-.38.99.1,2.12,1.08,2.5.22.1.46.14.7.14l-.19,3.15c-23.99-1.44-48.33,1.88-70.83,9.72-6.81-4.98-13.88-8.64-21.94-11.36-2.19-.75-4.67.87-5.27,2.98-.58,2.09-1.23,4.19-1.88,6.28-2.89-.89-5.94-1.25-8.97-1.03-2.09.12-4.16.53-6.16,1.2-4.47,1.47-8.35,4.16-11.38,7.75.19-4.69,1.35-9.43,3.51-13.98,3.75-7.75,10.37-14.22,18.21-17.76,1.35-.63,2.17-2.04,2-3.51-.17-1.47-1.28-2.67-2.72-2.98-1.59-.31-3.2-.55-4.86-.77,28.61-20.16,63.39-32.05,100.95-32.05,1.18,0,2.36.07,3.51.1-.99,10.59,7.36,20.33,15.69,27.64ZM733.39,100.93c0-1.9-1.52-3.42-3.42-3.42s-3.42,1.52-3.42,3.42,1.54,3.42,3.42,3.42,3.42-1.54,3.42-3.42ZM678.23,126c0-1.08-.84-1.92-1.92-1.92h-1.49v-1.52c0-1.06-.87-1.92-1.92-1.92s-1.92.87-1.92,1.92v1.52h-1.49c-1.06,0-1.92.84-1.92,1.92s.87,1.92,1.92,1.92h1.49v1.49c0,1.06.87,1.92,1.92,1.92s1.92-.87,1.92-1.92v-1.49h1.49c1.08,0,1.92-.87,1.92-1.92Z"/>
  <path class="st11" d="M752.69,233.74c1.28,1.64,1.64,3.83,0,5.44-1.35,1.35-4.16,1.64-5.44,0-1.25-1.61-2.6-3.1-3.97-4.6-1.15,1.3-2.29,2.6-3.3,4.02-1.2,1.68-3.32,2.5-5.27,1.37-1.66-.99-2.6-3.58-1.37-5.27,1.47-2.02,3.08-3.92,4.74-5.77-2.21-1.68-3.68-4.43-3.68-7.51,0-4.88,3.2-7.92,8.35-7.92,5.51,0,9.24,3.18,9.24,7.92,0,2.86-1.28,5.39-3.22,7.1l-.12.17-.17.19c1.44,1.56,2.89,3.15,4.21,4.86ZM743.18,224.67c1.56,0,2.81-1.47,2.81-3.25,0-1.66-2.04-1.92-3.25-1.92-2.36,0-2.36.89-2.36,1.92,0,1.78,1.25,3.25,2.79,3.25Z"/>
  <path class="st17" d="M746,221.42c0,1.78-1.25,3.25-2.81,3.25s-2.79-1.47-2.79-3.25c0-1.03,0-1.92,2.36-1.92,1.2,0,3.25.26,3.25,1.92Z"/>
  <path class="st11" d="M731.18,214.47c.12,2.79-2.43,5.15-5.12,5.15h-.65c-2.89,0-5-2.36-5.12-5.15-.12-2.77,2.43-5.12,5.12-5.12h.65c2.89,0,5,2.36,5.12,5.12Z"/>
  <path class="st0" d="M729.98,97.52c1.9,0,3.42,1.52,3.42,3.42s-1.52,3.42-3.42,3.42-3.42-1.54-3.42-3.42,1.54-3.42,3.42-3.42Z"/>
  <path class="st11" d="M711.07,215.41c10.32,15.78-4.67,37.17-15.73,48.33-1.01,1.01-2.77,1.59-4.16,1.08-3.3-1.18-6.16-2.84-9.17-4.67-11.93-7.92-24.61-22.81-19.9-38.25,3.37-11.02,15.25-13.11,23.51-7.65,6.59-8.06,18.69-9.21,25.45,1.15ZM702.69,238.38c2.31-5.15,4.16-11.02,2.12-16.65-2.65-7.36-11.43-6.86-14.12.26-1.32,3.56-5.58,4.11-7.82,1.01-4.88-6.83-11.91-2.55-12.99,4.21-.48,3.18.36,6.38,1.66,9.24,3.01,6.54,8.85,12.34,14.8,16.31,1.61.96,3.18,1.97,4.86,2.81,4.72-5.15,8.59-10.8,11.5-17.2Z"/>
  <path class="st12" d="M704.81,221.73c2.04,5.63.19,11.5-2.12,16.65-2.91,6.4-6.78,12.05-11.5,17.2-1.68-.84-3.25-1.85-4.86-2.81-5.94-3.97-11.79-9.77-14.8-16.31-1.3-2.86-2.14-6.06-1.66-9.24,1.08-6.76,8.11-11.04,12.99-4.21,2.24,3.1,6.5,2.55,7.82-1.01,2.69-7.12,11.48-7.63,14.12-.26Z"/>
  <path class="st7" d="M700.1,351.26v76.63c-20.81-4.81-40.37-13.28-58.2-25.31v-51.32l29.09-29.11,29.11,29.11Z"/>
  <path class="st0" d="M676.3,124.08c1.08,0,1.92.84,1.92,1.92s-.84,1.92-1.92,1.92h-1.49v1.49c0,1.06-.87,1.92-1.92,1.92s-1.92-.87-1.92-1.92v-1.49h-1.49c-1.06,0-1.92-.87-1.92-1.92s.87-1.92,1.92-1.92h1.49v-1.52c0-1.06.87-1.92,1.92-1.92s1.92.87,1.92,1.92v1.52h1.49Z"/>
  <path class="st2" d="M653.49,328.53l-15.54,15.54-15.9-15.93-14.34-14.34c-.75-.72-1.78-1.11-2.79-1.11l2.45-5.49c1.4.72,3.01.84,4.45,1.47,1.4.58,2.55,1.61,3.83,2.41,2.86,1.8,6.47,2.41,9.79,1.66,1.73-.38,3.39-1.11,5.15-1.32,1.4-.14,2.81.02,4.21-.12,3.13-.34,6.04-2.53,7.05-5.49.99-2.98-.07-6.59-2.65-8.4-.67-.48-1.44-.84-2.04-1.42-.72-.7-1.13-1.66-1.59-2.57-.65-1.23-1.42-2.33-2.26-3.32l4.67-.72c.58.79,1.47,1.28,2.72,1.28,3.99,0,5.61-7.34,3.39-10.37l5-.43c4.76,10.22,4.5,26.58,4.31,40.13-.05,2.67-.1,5.24-.1,7.63l.02.07c0,.29.1.55.17.84Z"/>
  <path class="st2" d="M649.09,279.86l-5,.43c-.24-.31-.51-.58-.82-.79-2.14-1.42-4.4-1.01-5.49,1.37-.94,2.12-1.44,6.38.19,8.52l-4.67.72c-3.99-4.57-10.03-6.28-15.93-3.08-1.92,1.03-2.24,2.5-3.8,3.87-2.12,1.88-4.72,2.02-6.74,3.2-1.13.67-2.09,1.68-2.67,3.54-1.01,3.27-.05,7.87,3.2,9.58l-2.45,5.49c-1.03,0-2.04.38-2.79,1.11l-10.13,10.13c-2-12.65-1.73-25.81.84-38.33,1.78-8.64,5.34-13.67,11.86-16.82,2.31-1.11,4.55-2.55,6.74-3.95,3.87-2.5,7.53-4.86,11.12-5.17,3.56-.29,7.31.96,9.94,3.42.91.84,1.73,1.85,2.62,2.94.48.55.94,1.13,1.42,1.66,1.78,2.04,3.9,3.34,5.75,4.5,1.52.94,2.81,1.73,3.68,2.74,1.23,1.4,2.26,3.06,3.13,4.93ZM634.78,277.19c.7-1.8.79-4.31.14-6.16-.75-2.02-3.9-2.26-5.51-1.3-2,1.2-3.01,5.15-2.69,7.29.26,1.95,1.61,4.04,3.66,4.11.89.05,1.68-.29,2.36-.84.94-.79,1.61-1.97,2.04-3.1ZM618.83,279.91c4.96-.41,6.11-10.71,1.56-12.27-4.4-1.52-6.93,1.92-6.4,6.04.19,1.44.46,2.91,1.23,4.16.77,1.23,2.17,2.19,3.61,2.07ZM609.06,288.16c2.19-.82,3.39-4.47,3.15-6.66-.19-1.66-.79-3.32-1.95-4.55-3.15-3.37-7.7-.99-7.7,3.44,0,2.84,1.4,6.01,3.92,7.46.96.55,1.83.6,2.57.31Z"/>
  <path class="st17" d="M644.09,280.29c2.21,3.03.6,10.37-3.39,10.37-1.25,0-2.14-.48-2.72-1.28-1.64-2.14-1.13-6.4-.19-8.52,1.08-2.38,3.34-2.79,5.49-1.37.31.22.58.48.82.79Z"/>
  <path class="st6" d="M640.57,149.51c2.26-.17,4.5.07,6.64.75-3.25,9.65-6.95,19.22-10.71,28.75-4.72-3.27-8.42-7.6-10.78-12.68-.34-.72-.65-1.47-.94-2.21-.24-.65-.43-1.32-.63-2,.29-.29.53-.6.72-.99.87-1.97,1.97-3.73,3.3-5.24,2.21-2.55,4.98-4.43,8.16-5.49,1.4-.48,2.81-.77,4.23-.89Z"/>
  <path class="st17" d="M639.2,297.42c2.57,1.8,3.63,5.41,2.65,8.4-1.01,2.96-3.92,5.15-7.05,5.49-1.4.14-2.81-.02-4.21.12-1.76.22-3.42.94-5.15,1.32-3.32.75-6.93.14-9.79-1.66-1.28-.79-2.43-1.83-3.83-2.41-1.44-.63-3.06-.75-4.45-1.47-3.25-1.71-4.21-6.3-3.2-9.58.58-1.85,1.54-2.86,2.67-3.54,2.02-1.18,4.62-1.32,6.74-3.2,1.56-1.37,1.88-2.84,3.8-3.87,5.89-3.2,11.93-1.49,15.93,3.08.84.99,1.61,2.09,2.26,3.32.46.91.87,1.88,1.59,2.57.6.58,1.37.94,2.04,1.42Z"/>
  <path class="st11" d="M640.33,142.7l.24,6.81c-1.42.12-2.84.41-4.23.89-3.18,1.06-5.94,2.94-8.16,5.49l-5.39-4.23c3.03-3.58,6.9-6.28,11.38-7.75,2-.67,4.07-1.08,6.16-1.2Z"/>
  <path class="st17" d="M634.92,271.03c.65,1.85.55,4.35-.14,6.16-.43,1.13-1.11,2.31-2.04,3.1-.67.55-1.47.89-2.36.84-2.04-.07-3.39-2.17-3.66-4.11-.31-2.14.7-6.09,2.69-7.29,1.61-.96,4.76-.72,5.51,1.3Z"/>
  <path class="st7" d="M634.01,351.26v45.66c-19.73-14.94-36.23-34.02-48.14-55.7l12.7-12.73,6.35-6.35,6.16,6.16,22.93,22.95Z"/>
  <path class="st10" d="M629.1,118.81c1.32,0,2.62.05,3.9.12-5.41,4.19-9.89,9.65-12.85,15.78-4.96,10.3-5.61,21.58-1.78,31.78.31.82.65,1.64,1.01,2.43,2.53,5.56,6.35,10.39,11.14,14.19-1.18.12-2.43.26-3.73.36-4.21.31-8.95.29-13.71-.6-.43-.07-.87-.17-1.3-.26-6.71-1.49-15.25-5.12-20.47-13.86-6.35-10.59-5.22-25.07,2.74-35.25,6.35-8.13,15.61-12.34,25.31-13.93,3.25-.53,6.52-.77,9.74-.77Z"/>
  <path class="st6" d="M632.3,189.81c-1.54,3.95-3.06,7.92-4.52,11.91-8.08.51-18.4-.91-22.71-1.59-7.22-1.18-11.33-4.09-12.53-8.93-.22-.89-.26-1.83-.14-2.72.29-2.31,1.64-4.4,3.46-5.27,4.16,2.81,9,4.86,14.48,6.09.48.12.96.22,1.47.31,3.49.65,6.93.89,10.18.89,1.88,0,3.71-.07,5.44-.22,1.73-.12,3.37-.29,4.88-.48Z"/>
  <path class="st11" d="M626.79,183.48l.63,6.81c-1.73.14-3.56.22-5.44.22-3.25,0-6.69-.24-10.18-.89-.51-.1-.99-.19-1.47-.31l1.44-6.69c.43.1.87.19,1.3.26,4.76.89,9.5.91,13.71.6Z"/>
  <path class="st1" d="M620.39,212.49l3.46.51c-1.47,4.45-2.81,8.93-4.04,13.42-.63.02-1.28.07-1.9.07-2.26.05-4.07,1.92-4.04,4.19.05,2.17,1.78,3.9,3.92,3.99-1.37,6.21-2.45,12.46-3.08,18.84-.79.36-1.59.75-2.33,1.15-.14-.55-.29-1.11-.48-1.64-4.6-13.83-21.56-15.35-31.04-5.12-4.81-3.87-10.73-5.63-16.17-5.08,1.95-25.33,9.26-49.2,20.83-70.4,1.4,2.29,3.01,4.35,4.86,6.23-2.69,2.29-4.47,5.73-4.81,9.41-.19,1.56-.07,3.18.31,4.76,1.32,5.29,5.53,12.03,18.09,14.05,3.22.51,7.94,1.15,12.97,1.52,0,2.02,1.4,3.8,3.44,4.09ZM597.22,225.27c0-1.88-1.54-3.42-3.42-3.42s-3.44,1.54-3.44,3.42,1.54,3.44,3.44,3.44,3.42-1.54,3.42-3.44Z"/>
  <path class="st17" d="M620.39,267.64c4.55,1.56,3.39,11.86-1.56,12.27-1.44.12-2.84-.84-3.61-2.07-.77-1.25-1.03-2.72-1.23-4.16-.53-4.11,2-7.55,6.4-6.04Z"/>
  <path class="st11" d="M618.32,112.87l1.03,6.71c-9.7,1.59-18.96,5.8-25.31,13.93-7.96,10.18-9.09,24.66-2.74,35.25,5.22,8.73,13.76,12.37,20.47,13.86l-1.44,6.69c-5.49-1.23-10.32-3.27-14.48-6.09-1.83.87-3.18,2.96-3.46,5.27l-6.81-.41c.34-3.68,2.12-7.12,4.81-9.41-1.85-1.88-3.46-3.95-4.86-6.23-11.57,21.2-18.89,45.06-20.83,70.4,5.44-.55,11.36,1.2,16.17,5.08,9.48-10.22,26.44-8.71,31.04,5.12l-6.21,1.01c-.77-2.17-2.29-3.95-4.96-4.86-6.38-2.21-13.02-.14-16.5,5.46-1.13,1.78-3.85,2.36-5.39.7-6.5-7.12-19.25-9.65-22.88,2.5-.19.65-.34,1.3-.43,1.95l-6.69-.96c.05-.41.14-.82.22-1.23.87-4.19,2.65-7.41,5-9.82,1.49-32.07,11.12-62.07,26.87-87.93-1.76-10.47.89-21.85,7.7-30.55,7.58-9.67,18.45-14.6,29.69-16.43Z"/>
  <path class="st17" d="M612.21,281.49c.24,2.19-.96,5.85-3.15,6.66-.75.29-1.61.24-2.57-.31-2.53-1.44-3.92-4.62-3.92-7.46,0-4.43,4.55-6.81,7.7-3.44,1.15,1.23,1.76,2.89,1.95,4.55Z"/>
  <path class="st17" d="M605.69,254.04c.48,1.32.67,2.77.7,4.26-1.83,1.18-3.56,2.29-5.24,3.1-8.85,4.26-14.05,11.43-16.34,22.57-.89,4.31-1.52,8.71-1.88,13.14-.41.36-.82.77-1.23,1.13-8.16-6.38-16.02-13.45-21.34-22.42-2.77-4.64-5.63-10.37-4.84-16.02.1-.65.24-1.3.43-1.95,3.63-12.15,16.38-9.62,22.88-2.5,1.54,1.66,4.26,1.08,5.39-.7,3.49-5.61,10.13-7.67,16.5-5.46,2.67.91,4.19,2.69,4.96,4.86Z"/>
  <path class="st0" d="M593.81,221.85c1.88,0,3.42,1.54,3.42,3.42s-1.54,3.44-3.42,3.44-3.44-1.54-3.44-3.44,1.54-3.42,3.44-3.42Z"/>
  <path class="st1" d="M585.14,330.79l-3.08,3.08c-5.87-11.98-10.35-24.61-13.35-37.6,3.97,3.56,7.99,6.74,11.48,9.41.79.6,1.56.75,2.29.6-.07,7.79.65,15.59,2.14,23.17.1.51.29.94.53,1.35Z"/>
  <path class="st2" d="M736.59,240.66c-.67,0-1.34-.18-1.97-.54-.95-.57-1.69-1.65-1.94-2.82-.21-1.01-.03-1.96.51-2.7,1.26-1.74,2.69-3.48,4.63-5.65-2.26-1.79-3.6-4.59-3.6-7.53,0-4.99,3.27-8.09,8.52-8.09,5.63,0,9.41,3.25,9.41,8.09,0,2.76-1.2,5.4-3.28,7.23l-.03.04-.09.12-.06.06c1.43,1.55,2.82,3.08,4.12,4.76,1.51,1.94,1.51,4.17-.02,5.67-.78.78-2.08,1.24-3.28,1.16-1.01-.06-1.87-.48-2.42-1.18-1.23-1.58-2.56-3.06-3.83-4.44-1.07,1.2-2.18,2.49-3.16,3.86-.91,1.27-2.21,1.96-3.53,1.96ZM742.75,213.68c-5.04,0-8.17,2.97-8.17,7.74,0,2.89,1.35,5.65,3.61,7.37l.15.11-.13.14c-1.99,2.22-3.45,4-4.73,5.76-.48.65-.64,1.52-.45,2.42.22,1.08.9,2.08,1.77,2.59,1.98,1.15,4,.12,5.04-1.32,1.03-1.44,2.2-2.78,3.31-4.03l.13-.14.13.14c1.31,1.43,2.7,2.96,3.98,4.61.48.62,1.25.99,2.16,1.05,1.12.06,2.3-.35,3.01-1.06h0c1.69-1.66,1.05-3.84-.01-5.21-1.32-1.71-2.74-3.27-4.2-4.85l-.09-.1.08-.12.19-.22.03-.05.09-.12c2.02-1.77,3.17-4.31,3.17-6.97,0-4.63-3.64-7.74-9.06-7.74Z"/>
  <path class="st16" d="M797.57,265.02c-1.19,0-2.43-.46-3.59-1.38h0c-7.52-5.97-17.5-15.74-22.34-28.41-.25-.45-.41-.84-.5-1.27-.13-.33-.22-.77-.25-1.23-1.58-7.16-1.7-16.98,6.82-22.48,6.29-4.06,13.23-3.64,19.12,1.13,4.25-4.16,10.26-5.91,15.86-4.58,5.32,1.26,9.34,5.2,11.03,10.79,5.55,18.35-7.94,36.7-23.78,46.74-.72.46-1.52.69-2.35.69ZM794.78,262.63c.57.45,2.57,1.81,4.44.61,15.42-9.78,28.59-27.57,23.23-45.26-1.58-5.21-5.16-8.73-10.09-9.9-5.33-1.27-11.1.51-15.04,4.65l-.43.45-.47-.4c-5.52-4.73-12.1-5.25-18.04-1.42-7.89,5.1-7.74,14.35-6.24,21.21.04.43.1.75.21,1.04.09.39.21.69.41,1.04l.04.09c4.73,12.41,14.55,22.02,21.95,27.89Z"/>
  <path class="st16" d="M692.28,265.66c-.45,0-.9-.07-1.33-.23-3.39-1.21-6.33-2.93-9.28-4.72-12.32-8.17-24.98-23.28-20.18-39,1.5-4.9,4.79-8.48,9.27-10.09,4.72-1.7,10.19-1.03,14.73,1.78,3.57-4.1,8.61-6.37,13.6-6.11,4.99.27,9.44,3.03,12.53,7.76,12.45,19.04-10.99,44.28-15.82,49.15h0c-.82.82-2.16,1.46-3.51,1.46ZM676.14,211.99c-1.69,0-3.37.28-4.95.85-4.08,1.47-7.09,4.75-8.46,9.25-4.59,15.04,7.71,29.61,19.63,37.52,2.87,1.75,5.75,3.42,9.03,4.6,1.07.39,2.57-.01,3.48-.93,4.7-4.74,27.55-29.32,15.65-47.52-2.86-4.38-6.94-6.93-11.51-7.17-4.76-.26-9.57,2.01-12.89,6.08l-.37.45-.49-.32c-2.79-1.84-5.98-2.8-9.11-2.8Z"/>
  <path class="st17" d="M669.42,158.76c.45.34-7.28,2.54-8.02,2.71-.63.14,2.03-7,2.03-7l5.98,4.29Z"/>
  <path class="st17" d="M807.85,158.78c-.45.34,7.28,2.54,8.02,2.71.63.14-2.03-7-2.03-7l-5.98,4.29Z"/>
</svg>